<?xml version="1.0" standalone="no"?>
<!DOCTYPE svg PUBLIC "-//W3C//DTD SVG 20010904//EN"
 "http://www.w3.org/TR/2001/REC-SVG-20010904/DTD/svg10.dtd">
<svg version="1.0" xmlns="http://www.w3.org/2000/svg"
 width="2276.000000pt" height="1828.000000pt" viewBox="0 0 2276.000000 1828.000000"
 preserveAspectRatio="xMidYMid meet">
<metadata>
Created by potrace 1.16, written by Peter Selinger 2001-2019
</metadata>
<g transform="translate(0.000000,1828.000000) scale(0.100000,-0.100000)"
fill="#000000" stroke="none">
<path d="M19440 18271 c-82 -9 -189 -68 -276 -152 -67 -64 -96 -79 -151 -79
-62 0 -113 -22 -173 -76 -64 -57 -158 -93 -247 -95 -26 0 -73 -5 -103 -10 -30
-5 -136 -14 -235 -18 -101 -5 -193 -14 -210 -21 -16 -7 -66 -16 -110 -20 -106
-10 -354 -73 -525 -135 -76 -27 -271 -125 -333 -167 -107 -73 -338 -171 -487
-208 -83 -20 -244 -44 -295 -44 -67 1 -273 29 -308 43 -16 6 -41 11 -56 11
-16 0 -48 7 -72 16 -225 79 -368 101 -459 69 -23 -8 -55 -15 -70 -15 -35 0
-225 -93 -315 -155 -38 -26 -142 -119 -230 -205 -88 -87 -181 -171 -206 -188
-50 -34 -78 -60 -206 -193 l-81 -86 -95 -6 c-80 -5 -124 -16 -274 -67 -272
-92 -514 -223 -783 -427 -109 -82 -413 -385 -476 -475 -72 -102 -95 -117 -202
-133 -48 -7 -100 -18 -115 -24 -17 -6 -99 -11 -199 -11 -143 0 -181 -3 -241
-21 -120 -35 -231 -71 -242 -79 -5 -4 -39 -17 -75 -29 -36 -11 -89 -37 -119
-57 -56 -38 -288 -157 -331 -169 -14 -4 -72 -30 -129 -56 -243 -115 -511 -169
-685 -140 -115 20 -312 83 -446 144 -30 14 -92 36 -137 51 -45 14 -101 35
-125 46 -73 34 -471 166 -933 309 -110 34 -222 71 -250 81 -27 11 -106 38
-175 60 -300 98 -400 131 -480 160 -175 64 -166 62 -465 67 -179 3 -305 1
-350 -6 -38 -6 -135 -16 -215 -21 -83 -5 -164 -15 -189 -24 -29 -11 -79 -16
-152 -16 -59 0 -120 -5 -136 -11 -32 -13 -199 -36 -359 -49 -61 -5 -130 -17
-154 -25 -29 -10 -81 -15 -165 -15 -83 0 -136 -5 -165 -15 -23 -8 -67 -15 -98
-15 -49 0 -159 -20 -282 -52 -25 -6 -70 -14 -100 -18 -57 -8 -211 -44 -340
-81 -136 -39 -425 -129 -450 -140 -14 -6 -86 -31 -160 -54 -159 -52 -243 -83
-325 -121 -33 -15 -87 -37 -120 -50 -151 -56 -196 -75 -280 -116 -49 -24 -112
-52 -140 -62 -70 -26 -190 -87 -252 -127 -29 -19 -100 -61 -158 -94 -58 -33
-143 -84 -190 -112 -46 -29 -87 -53 -90 -53 -10 0 -298 -191 -325 -215 -14
-13 -88 -65 -165 -117 -77 -52 -153 -107 -170 -122 -16 -16 -63 -53 -103 -83
-40 -30 -101 -83 -135 -117 -34 -34 -102 -91 -152 -126 -49 -34 -104 -75 -122
-90 -17 -16 -76 -57 -130 -93 -54 -36 -126 -91 -160 -122 -64 -58 -153 -175
-193 -255 -13 -25 -35 -63 -50 -85 -15 -22 -33 -58 -40 -80 -7 -22 -28 -69
-46 -105 -36 -71 -104 -219 -104 -226 0 -3 -9 -26 -21 -52 -11 -26 -26 -60
-34 -77 -7 -16 -16 -41 -20 -55 -4 -14 -20 -52 -35 -85 -15 -33 -33 -78 -40
-100 -7 -22 -26 -67 -42 -100 -15 -33 -28 -71 -28 -84 0 -13 -6 -47 -14 -75
-8 -28 -19 -71 -25 -96 -6 -25 -20 -76 -31 -115 -12 -38 -25 -97 -29 -130 -9
-68 -19 -108 -67 -282 -26 -95 -34 -142 -34 -207 0 -49 -6 -101 -15 -126 -10
-28 -15 -80 -15 -150 0 -72 -5 -122 -16 -151 -8 -24 -18 -91 -20 -149 -3 -58
-12 -125 -20 -149 -10 -33 -14 -105 -14 -287 0 -189 -3 -251 -15 -284 -11 -31
-15 -87 -15 -215 0 -128 4 -184 15 -215 8 -23 15 -60 15 -81 0 -36 11 -82 56
-245 8 -28 14 -62 14 -75 0 -31 102 -346 135 -416 8 -17 15 -33 15 -36 0 -8
64 -147 121 -262 27 -55 49 -103 49 -108 0 -8 64 -175 85 -222 7 -16 18 -50
25 -75 6 -25 22 -63 35 -85 12 -22 28 -60 35 -85 6 -25 27 -78 46 -118 19 -41
34 -76 34 -78 0 -3 9 -26 21 -52 11 -26 26 -60 34 -77 7 -16 16 -41 20 -55 4
-14 61 -134 126 -267 66 -133 119 -248 119 -256 0 -8 92 -198 204 -423 112
-225 216 -434 230 -466 13 -31 30 -59 35 -63 6 -3 18 -32 27 -63 9 -31 29 -86
45 -120 16 -35 46 -118 66 -185 19 -67 41 -133 48 -147 7 -14 34 -93 59 -176
25 -83 55 -171 66 -195 11 -24 20 -56 20 -70 0 -14 18 -79 40 -145 23 -65 45
-137 51 -159 37 -137 75 -265 91 -300 10 -22 18 -51 18 -64 0 -13 23 -97 50
-187 28 -90 50 -171 50 -181 0 -11 14 -59 31 -108 16 -50 50 -151 73 -225 24
-74 57 -161 74 -192 17 -31 38 -81 47 -111 8 -30 36 -93 60 -141 25 -48 45
-95 45 -104 0 -18 169 -359 199 -401 11 -14 43 -73 72 -131 30 -58 68 -125 85
-150 17 -25 39 -63 49 -85 10 -22 35 -65 55 -95 20 -30 45 -71 55 -90 40 -79
175 -269 240 -340 39 -41 90 -102 115 -135 60 -83 553 -574 620 -619 30 -20
80 -53 110 -73 30 -20 66 -47 80 -59 31 -29 107 -84 230 -167 52 -36 120 -85
150 -110 30 -25 82 -63 116 -84 33 -21 101 -65 150 -97 165 -109 338 -181 735
-306 69 -22 145 -48 170 -59 36 -17 66 -21 170 -21 86 0 140 -5 169 -15 23 -8
66 -15 95 -15 29 0 72 7 95 15 27 9 79 15 139 15 91 0 102 2 167 35 38 19 76
35 84 35 19 0 133 54 172 81 16 12 55 35 88 53 60 32 173 114 270 196 30 26
75 60 100 77 25 17 59 45 75 63 17 18 63 57 103 88 117 88 221 191 274 272 67
100 121 203 143 270 10 30 21 60 25 65 4 6 22 55 39 109 18 54 36 108 42 118
6 11 14 40 19 66 4 26 27 119 51 207 27 102 45 195 49 255 4 52 13 111 21 130
20 50 20 509 0 560 -7 19 -17 64 -21 100 -4 36 -15 94 -23 130 -26 101 -68
281 -77 325 -29 146 -97 385 -143 505 -14 36 -37 95 -51 132 -34 90 -153 329
-207 418 -68 110 -228 353 -248 375 -10 11 -50 67 -89 125 -50 74 -118 153
-229 265 -87 88 -178 187 -202 220 -24 33 -406 422 -849 865 -443 443 -830
838 -861 879 -178 233 -427 596 -477 693 -9 18 -30 53 -47 77 -36 53 -179 340
-197 396 -7 22 -33 80 -57 129 -23 49 -43 97 -43 105 0 9 -20 59 -45 111 -90
194 -138 336 -154 461 -5 37 -12 72 -16 79 -30 48 -66 556 -46 652 43 211 140
441 238 562 26 33 89 93 138 133 146 120 479 273 672 309 21 4 56 15 78 25 22
10 51 19 63 19 13 0 54 9 90 19 37 11 112 27 167 36 55 9 120 23 144 31 25 8
62 14 84 14 38 0 90 13 272 70 245 75 314 88 525 94 99 3 159 9 189 20 63 23
498 23 562 0 28 -10 104 -19 209 -24 181 -10 262 -21 329 -45 24 -8 56 -15 71
-15 36 0 365 -108 455 -150 39 -18 113 -46 165 -62 52 -17 113 -39 134 -50 22
-11 101 -40 175 -64 346 -111 679 -233 809 -295 161 -77 314 -137 527 -205 77
-25 199 -74 272 -109 72 -36 137 -65 143 -65 7 0 53 -20 104 -44 50 -24 109
-49 131 -56 121 -38 217 -111 323 -245 79 -99 173 -195 275 -282 90 -77 114
-112 147 -218 23 -74 59 -132 105 -173 56 -49 120 -82 161 -82 37 0 142 -50
171 -81 11 -13 27 -44 33 -69 32 -119 149 -270 280 -360 63 -44 130 -112 184
-187 74 -104 170 -172 286 -203 50 -14 196 -84 224 -109 25 -22 95 -133 134
-211 18 -36 41 -75 51 -87 32 -38 161 -121 215 -139 28 -9 56 -20 61 -24 6 -4
40 -17 76 -29 67 -22 88 -39 178 -141 78 -90 146 -123 345 -169 63 -15 116
-54 158 -116 45 -67 139 -158 184 -180 21 -10 58 -32 83 -49 25 -18 57 -37 71
-43 79 -36 170 -73 182 -73 29 0 170 -50 198 -70 16 -12 59 -65 94 -119 73
-110 123 -160 197 -196 58 -28 336 -115 367 -115 11 0 39 7 63 16 71 25 103
12 240 -93 23 -18 69 -41 103 -51 34 -11 90 -38 125 -60 l64 -42 163 0 c151 0
168 -2 231 -26 37 -14 97 -35 133 -46 36 -11 70 -24 75 -28 6 -4 57 -22 114
-40 97 -30 110 -31 235 -28 114 3 137 6 176 27 38 20 53 22 103 16 33 -3 87
-15 121 -25 50 -16 91 -20 232 -20 131 0 182 -4 218 -16 30 -10 67 -15 99 -12
46 4 67 14 167 83 63 43 145 107 182 142 106 101 157 117 248 76 50 -23 317
-197 335 -218 6 -7 38 -33 72 -56 33 -24 82 -60 109 -79 100 -71 284 -262 350
-362 35 -53 64 -99 64 -103 0 -4 20 -38 45 -77 44 -67 204 -387 220 -438 4
-14 20 -52 36 -85 15 -33 33 -80 39 -105 7 -25 22 -63 35 -85 25 -43 33 -69
120 -365 32 -107 68 -213 80 -235 13 -22 30 -62 39 -90 9 -27 102 -221 207
-430 220 -440 306 -577 454 -728 52 -54 113 -122 134 -150 43 -58 156 -168
214 -211 20 -15 50 -39 65 -53 15 -14 47 -39 72 -56 25 -16 56 -40 70 -52 40
-36 262 -186 300 -204 19 -8 62 -34 95 -57 33 -23 70 -45 82 -48 12 -4 46 -24
75 -44 60 -41 183 -103 243 -122 22 -7 45 -16 50 -20 6 -4 78 -28 161 -54 200
-61 324 -63 324 -7 0 28 -26 47 -420 308 -47 31 -103 74 -125 94 -22 21 -59
51 -81 68 -23 16 -68 54 -99 83 -31 29 -74 64 -94 78 -46 31 -384 367 -400
397 -29 56 50 23 230 -97 64 -43 126 -81 138 -85 11 -3 44 -23 73 -43 54 -37
184 -103 228 -117 14 -4 39 -13 55 -21 55 -25 259 -92 350 -115 63 -16 148
-23 180 -15 30 8 48 39 40 67 -11 33 -103 116 -163 146 -32 15 -73 40 -92 54
-19 15 -57 37 -85 50 -47 21 -116 63 -246 151 -32 21 -65 41 -75 45 -18 6 -37
18 -199 126 -38 25 -88 63 -110 84 -22 20 -62 53 -90 73 -27 19 -90 73 -138
120 -49 47 -107 97 -129 111 -21 15 -51 44 -65 65 -14 22 -43 57 -64 79 -20
22 -53 63 -71 90 -19 28 -52 69 -74 93 -101 111 -175 243 -501 892 -181 360
-345 679 -365 708 -20 29 -40 62 -43 73 -8 25 -107 172 -140 209 -12 14 -36
45 -53 70 -42 63 -574 597 -643 645 -31 22 -83 60 -115 84 -32 25 -84 61 -115
80 -31 20 -102 67 -159 105 l-102 68 6 62 c4 33 14 86 23 116 15 54 25 85 84
260 36 105 36 121 -1 195 -24 48 -29 73 -30 128 0 117 -63 213 -199 307 -81
56 -134 107 -174 170 -40 63 -113 136 -174 174 -77 47 -72 107 26 299 39 76
75 154 80 175 5 20 22 66 38 102 l28 65 3 320 3 320 -27 75 c-14 41 -30 93
-36 115 -44 163 -149 464 -173 497 -22 31 -50 36 -59 12 -3 -9 -6 -43 -6 -76
0 -34 -6 -84 -14 -112 -22 -78 -48 -187 -56 -231 -4 -22 -32 -123 -63 -225
-42 -138 -75 -220 -127 -325 -100 -197 -133 -258 -176 -318 -51 -70 -171 -186
-201 -193 -62 -16 -125 3 -273 81 -25 13 -70 36 -100 50 -115 55 -207 111
-517 318 -325 216 -338 226 -389 302 -121 180 -240 457 -254 590 -8 84 -16
117 -87 357 -48 163 -81 261 -113 333 -34 76 -50 115 -50 119 0 12 -112 241
-131 267 -23 33 -67 112 -129 234 -23 44 -49 89 -59 100 -10 11 -32 49 -50 85
-41 83 -105 176 -156 226 -22 22 -57 64 -77 94 -143 211 -166 249 -186 317
-26 83 -27 123 -8 184 7 24 19 62 25 85 6 22 34 78 62 125 28 46 80 141 115
210 35 70 84 157 109 195 122 187 322 482 385 569 49 68 388 408 459 460 32
24 78 69 102 100 56 73 227 245 305 307 32 26 115 95 184 152 113 95 556 404
605 422 11 4 47 26 81 48 33 23 115 68 182 101 126 61 142 64 164 24 27 -51
125 -296 154 -386 47 -151 102 -312 118 -348 27 -58 66 -203 66 -243 0 -22 7
-59 15 -82 8 -23 15 -58 15 -78 0 -19 6 -58 14 -86 18 -64 56 -299 56 -346 0
-51 -38 -278 -55 -329 -8 -25 -15 -61 -15 -80 0 -20 -22 -108 -49 -196 -48
-157 -51 -185 -17 -185 35 0 207 223 301 390 17 30 47 83 67 119 73 130 137
284 159 378 6 26 15 68 21 93 6 25 15 81 19 125 9 101 17 127 38 123 17 -3 23
-19 42 -109 9 -43 9 -65 0 -89 -6 -18 -11 -55 -11 -81 0 -26 -5 -60 -11 -76
-33 -88 -31 -176 4 -195 18 -9 25 -6 50 23 31 37 55 86 82 169 10 30 28 73 40
95 13 22 33 76 45 120 12 44 29 96 37 115 33 75 53 145 53 185 0 24 7 62 15
86 23 65 24 1023 1 1088 -9 24 -16 63 -16 86 0 23 -7 62 -15 85 -8 23 -15 53
-15 65 0 12 -22 96 -49 186 -62 209 -67 239 -42 271 25 31 81 48 157 48 68 0
174 -44 237 -99 43 -38 106 -151 135 -241 58 -180 92 -314 92 -363 0 -30 7
-74 15 -97 8 -23 15 -62 15 -86 0 -23 5 -55 12 -71 6 -15 15 -91 19 -168 3
-77 14 -211 24 -298 14 -134 16 -243 13 -685 -3 -385 -7 -535 -16 -555 -7 -16
-15 -74 -18 -130 -4 -56 -13 -119 -21 -141 -7 -21 -13 -67 -13 -101 0 -34 -7
-82 -15 -105 -8 -23 -15 -60 -15 -81 0 -21 -5 -50 -11 -66 -6 -15 -14 -48 -19
-73 -5 -25 -24 -88 -44 -140 -54 -144 -25 -148 105 -12 46 48 99 107 116 132
18 25 55 74 82 110 58 76 160 243 192 315 12 28 33 62 45 78 33 39 164 306
164 332 0 12 12 40 27 61 40 59 136 329 181 509 6 22 22 74 36 115 15 42 26
96 26 126 0 28 7 71 15 94 9 26 15 78 15 135 0 56 6 109 15 135 8 23 19 92 25
153 6 62 14 137 19 167 13 73 12 1059 0 1135 -6 33 -14 146 -18 250 -6 132
-14 203 -25 234 -10 28 -16 76 -16 136 0 57 -6 109 -15 135 -8 23 -15 73 -15
110 0 37 -6 85 -14 106 -7 22 -17 70 -21 108 -4 38 -13 87 -21 109 -8 22 -14
72 -14 112 0 40 -7 92 -15 115 -11 31 -15 86 -15 200 0 114 -4 169 -15 200
-10 27 -15 79 -15 144 0 111 -9 154 -47 233 -37 77 -68 93 -184 93 -60 0 -125
-8 -179 -21 -47 -11 -95 -17 -107 -14 -15 3 -33 27 -55 70 -18 35 -52 103 -76
150 -30 58 -52 89 -71 99 -35 18 -155 27 -241 17z m51 -117 c10 -12 13 -45 10
-123 -2 -88 1 -120 19 -179 29 -96 59 -122 140 -122 124 0 140 -25 140 -218 0
-167 -6 -180 -97 -205 -32 -9 -85 -33 -118 -53 -83 -51 -287 -154 -304 -154
-7 0 -34 -11 -60 -24 -25 -13 -75 -38 -111 -55 -36 -17 -87 -52 -115 -77 -27
-25 -94 -75 -147 -110 -53 -35 -105 -72 -115 -82 -10 -10 -39 -33 -66 -51 -26
-18 -55 -40 -65 -50 -9 -10 -64 -48 -121 -85 -107 -70 -170 -128 -450 -420
-127 -132 -137 -140 -182 -147 -80 -13 -178 -67 -222 -124 -42 -54 -97 -160
-97 -186 0 -22 -137 -148 -169 -155 -14 -3 -46 -12 -70 -20 -25 -8 -55 -14
-68 -14 -12 0 -62 -20 -110 -45 -47 -25 -92 -45 -100 -45 -7 0 -46 -31 -85
-69 -98 -92 -275 -212 -433 -291 -100 -51 -135 -74 -150 -99 -35 -58 -88 -112
-142 -147 -34 -21 -59 -47 -73 -74 -11 -22 -40 -54 -63 -70 -53 -39 -152 -113
-223 -168 -73 -57 -95 -64 -188 -60 -88 3 -86 5 -105 -75 -18 -75 -50 -112
-162 -186 -57 -38 -120 -84 -139 -103 -50 -50 -219 -157 -259 -164 -18 -4 -58
-1 -88 7 -63 15 -82 8 -96 -37 -18 -53 -67 -101 -157 -152 -19 -10 -51 -29
-70 -40 -48 -28 -216 -82 -258 -82 -28 0 -46 -11 -104 -67 -38 -38 -79 -84
-89 -103 -39 -69 -101 -145 -132 -162 -18 -9 -54 -25 -80 -34 -63 -21 -140
-100 -178 -181 -16 -34 -29 -65 -29 -70 0 -5 -13 -24 -28 -43 -16 -19 -41 -54
-55 -76 -55 -88 -177 -186 -322 -261 -22 -11 -66 -34 -98 -52 -31 -17 -68 -31
-82 -31 -13 0 -28 -6 -32 -14 -10 -16 -57 -41 -98 -50 -16 -4 -43 -14 -60 -22
-49 -22 -177 -64 -225 -74 -25 -4 -58 -13 -73 -19 -16 -6 -43 -11 -61 -11 -19
0 -53 -7 -76 -15 -23 -8 -62 -15 -85 -15 -23 0 -62 -7 -86 -15 -24 -9 -87 -18
-139 -21 -52 -4 -120 -12 -151 -20 -31 -8 -73 -14 -92 -14 -19 0 -54 -7 -77
-15 -23 -8 -63 -15 -89 -15 -25 0 -66 -9 -90 -20 -24 -11 -61 -20 -83 -20 -21
0 -69 -7 -105 -17 -60 -15 -80 -15 -192 -3 -223 24 -516 14 -661 -22 -25 -6
-81 -14 -125 -18 -44 -4 -92 -12 -108 -18 -15 -6 -64 -14 -110 -18 -45 -3 -95
-10 -112 -16 -16 -5 -58 -13 -92 -18 -91 -12 -145 -47 -179 -115 -37 -76 -52
-85 -150 -85 -94 0 -112 10 -222 123 -54 54 -75 68 -132 88 -65 22 -69 22 -94
5 -15 -9 -32 -29 -38 -44 -30 -69 -56 -76 -145 -36 -101 45 -187 11 -240 -94
-25 -52 -28 -67 -28 -162 0 -103 1 -106 42 -190 23 -47 55 -99 70 -116 16 -16
86 -65 156 -109 70 -43 132 -84 138 -92 7 -7 15 -46 19 -86 4 -39 17 -94 29
-120 12 -26 20 -56 17 -65 -4 -9 -24 -27 -46 -40 -50 -28 -70 -73 -70 -158 0
-52 -3 -65 -21 -77 -17 -13 -26 -13 -62 -1 -23 8 -73 24 -112 36 -78 26 -144
81 -180 153 -11 22 -33 62 -50 90 -54 89 -201 467 -215 550 -4 28 -13 63 -19
78 -6 16 -11 43 -11 61 0 19 -7 53 -15 76 -8 23 -15 57 -15 74 0 17 -9 51 -20
75 -11 24 -20 60 -20 81 0 21 -7 57 -15 80 -8 23 -15 59 -15 80 0 21 -7 57
-15 80 -8 23 -15 66 -15 94 0 75 -8 98 -34 94 -13 -2 -29 -19 -43 -48 -21 -41
-23 -57 -23 -226 0 -139 4 -192 16 -225 8 -24 18 -84 20 -134 3 -49 12 -110
20 -134 8 -25 14 -68 14 -97 0 -28 7 -71 15 -94 8 -23 15 -57 15 -74 0 -17 9
-51 20 -75 11 -24 20 -52 20 -63 0 -11 18 -78 41 -149 33 -105 39 -132 29
-144 -16 -19 -26 -19 -75 5 -22 11 -45 19 -50 20 -6 0 -25 12 -42 28 -22 20
-44 62 -82 162 -29 74 -63 155 -76 180 -37 70 -85 208 -85 243 0 18 -9 52 -20
76 -11 24 -20 58 -20 76 0 18 -7 52 -15 75 -8 23 -15 62 -15 85 0 23 -7 62
-15 85 -11 32 -15 90 -15 237 0 192 0 194 -22 202 -16 6 -28 4 -39 -5 -31 -28
-62 -107 -70 -183 -4 -42 -13 -92 -19 -111 -15 -53 -13 -230 5 -280 8 -23 15
-66 15 -95 0 -29 7 -72 15 -95 10 -28 15 -80 15 -152 0 -83 4 -121 19 -156 10
-26 26 -76 34 -112 16 -63 16 -66 -3 -81 -17 -15 -24 -15 -60 -3 -63 22 -85
40 -115 95 -28 52 -98 249 -115 324 -5 22 -21 76 -34 120 -14 44 -26 96 -26
116 0 20 -9 56 -20 80 -12 28 -20 66 -20 105 0 34 -7 81 -15 104 -9 26 -15 78
-15 135 0 105 -5 125 -30 125 -18 0 -28 -27 -49 -146 -14 -77 -14 -279 0 -324
6 -19 13 -98 16 -175 2 -80 11 -159 19 -184 8 -25 14 -63 14 -87 0 -23 7 -61
15 -84 24 -67 20 -108 -11 -122 -20 -9 -32 -9 -57 2 -19 8 -92 15 -184 19
-168 7 -169 7 -211 81 -11 19 -36 62 -56 95 -20 33 -43 83 -51 112 -8 29 -22
77 -30 106 -8 30 -15 79 -15 109 0 30 -9 81 -21 114 -17 48 -19 73 -14 131 3
40 12 91 20 114 15 42 21 241 9 273 -3 9 -14 16 -23 16 -11 0 -28 -30 -56 -98
l-40 -97 -3 -380 c-3 -337 -1 -387 14 -438 17 -56 17 -58 -2 -84 -30 -39 -74
-50 -242 -55 l-153 -6 -38 57 c-86 129 -151 317 -151 438 0 39 -7 89 -15 112
-10 30 -16 111 -20 294 -4 138 -8 262 -11 275 -15 76 -114 -75 -114 -175 0
-28 -9 -80 -20 -115 -18 -56 -20 -91 -20 -338 0 -253 2 -279 20 -319 11 -24
20 -52 20 -64 0 -11 10 -52 22 -89 30 -93 20 -112 -76 -145 -92 -30 -138 -29
-205 5 -60 30 -229 186 -264 242 -11 19 -38 58 -59 86 -21 28 -38 54 -38 57 0
4 -15 30 -33 59 -18 29 -41 76 -51 103 -10 28 -31 78 -47 113 -16 35 -29 75
-29 90 0 46 -11 72 -30 72 -36 0 -41 -89 -10 -159 12 -26 20 -65 20 -99 0 -30
6 -78 14 -106 8 -28 22 -80 31 -116 23 -88 34 -117 67 -173 32 -55 74 -152 93
-213 9 -32 10 -46 0 -63 -14 -26 -85 -61 -125 -61 -15 0 -47 -7 -70 -15 -52
-18 -106 -19 -140 -2 -47 24 -373 506 -460 682 -49 97 -67 125 -82 125 -17 0
-19 -5 -14 -32 4 -18 11 -55 15 -83 5 -27 14 -63 20 -78 6 -16 11 -38 11 -49
0 -22 41 -136 62 -173 6 -11 39 -74 73 -140 70 -134 132 -245 146 -259 18 -20
9 -64 -17 -85 -15 -12 -33 -21 -41 -21 -8 0 -46 -9 -84 -21 -39 -12 -80 -18
-94 -15 -35 9 -161 167 -215 270 -15 28 -44 78 -64 111 -20 33 -46 86 -58 118
-11 32 -29 62 -39 68 -15 8 -19 4 -25 -27 -9 -49 0 -111 23 -164 11 -25 26
-61 32 -80 6 -19 29 -62 51 -95 22 -33 40 -63 40 -67 0 -4 22 -44 50 -89 61
-100 63 -121 12 -154 -20 -14 -88 -59 -150 -100 -64 -43 -123 -75 -137 -75
-14 0 -41 15 -62 33 -21 18 -56 46 -78 62 -22 16 -58 45 -80 66 -22 20 -85 67
-140 105 -55 37 -106 73 -113 81 -7 7 -34 25 -60 40 -26 14 -68 39 -93 55 -50
31 -79 36 -79 14 0 -14 248 -252 335 -321 28 -22 82 -69 121 -105 39 -36 87
-79 107 -96 27 -23 37 -39 37 -60 -1 -52 -81 -150 -144 -174 -44 -16 -326 -13
-376 5 -23 8 -61 15 -84 15 -86 1 -270 64 -316 110 -32 32 -56 41 -69 26 -9
-11 -4 -28 22 -77 29 -55 40 -67 92 -94 33 -17 94 -44 135 -60 73 -28 82 -29
315 -35 132 -3 241 -7 242 -8 1 -1 7 -11 13 -22 8 -16 4 -43 -20 -123 -18 -56
-40 -110 -50 -121 -25 -25 -112 -56 -185 -65 -60 -8 -122 -22 -204 -47 -62
-19 -413 -19 -467 0 -22 7 -65 16 -97 20 -54 7 -58 6 -55 -11 1 -10 38 -42 81
-71 64 -43 86 -52 121 -52 24 0 63 -7 86 -15 34 -12 102 -15 349 -15 230 0
311 -3 324 -12 19 -15 47 -89 47 -127 0 -31 -48 -112 -88 -146 -36 -32 -188
-122 -260 -155 -31 -14 -77 -37 -102 -50 -25 -13 -70 -36 -101 -50 -81 -36
-218 -123 -219 -137 0 -7 16 -15 35 -19 58 -11 136 1 205 30 78 34 153 59 240
82 36 10 85 27 110 40 25 12 77 32 117 45 70 22 73 22 93 4 38 -35 24 -106
-37 -183 -70 -89 -124 -134 -288 -243 -71 -47 -150 -102 -174 -123 -54 -46
-114 -80 -166 -96 -63 -19 -125 -52 -125 -66 0 -37 82 -44 149 -14 24 11 60
20 80 20 47 0 182 45 244 82 26 15 50 28 53 28 3 0 24 13 47 29 61 41 287 151
312 151 29 0 47 -23 75 -92 l23 -57 -34 -68 c-44 -89 -130 -216 -188 -276 -25
-27 -88 -78 -139 -114 -50 -35 -97 -73 -102 -83 -21 -39 22 -80 63 -59 39 21
168 110 188 130 11 11 41 36 67 56 26 19 80 66 120 104 95 89 114 91 149 12
13 -32 35 -80 47 -108 13 -27 31 -74 41 -103 l17 -53 -46 -95 c-39 -81 -60
-110 -143 -195 -107 -110 -117 -123 -109 -145 7 -17 78 -19 109 -3 34 18 200
193 222 233 38 70 70 57 126 -47 18 -34 50 -89 71 -121 30 -47 38 -69 38 -107
0 -59 -46 -162 -95 -216 -63 -68 -35 -83 61 -33 31 16 70 45 86 65 16 19 36
35 44 35 20 0 74 -79 74 -109 0 -56 -21 -100 -70 -147 -28 -27 -53 -57 -56
-67 -8 -24 13 -47 41 -47 32 0 104 32 141 63 28 24 33 25 52 11 21 -14 21 -17
7 -44 -21 -42 -19 -70 5 -70 18 0 25 15 21 42 0 3 13 10 30 13 29 7 37 1 101
-61 38 -38 83 -89 100 -114 17 -25 46 -61 65 -81 30 -32 33 -40 24 -58 -17
-31 -109 -29 -198 5 -37 14 -129 45 -203 69 -244 79 -324 108 -375 137 -11 7
-76 40 -145 76 -116 59 -166 88 -307 179 -29 18 -55 33 -57 33 -3 0 -39 20
-79 45 -61 37 -143 114 -447 423 -354 359 -377 384 -465 517 -93 140 -165 225
-193 225 -20 0 -7 -80 23 -140 12 -25 30 -70 40 -100 10 -30 30 -80 45 -110
15 -30 33 -73 40 -95 13 -40 166 -281 199 -313 10 -9 32 -37 48 -62 17 -25 48
-63 68 -85 20 -22 54 -65 75 -95 42 -60 341 -360 359 -360 6 0 30 -17 54 -38
50 -46 254 -184 335 -228 126 -68 161 -89 257 -154 56 -37 125 -75 155 -85 30
-10 75 -30 100 -45 25 -15 70 -35 100 -45 30 -10 79 -28 109 -42 29 -13 96
-37 148 -54 52 -17 109 -39 127 -50 18 -10 52 -25 77 -33 41 -13 150 -58 222
-90 72 -33 123 -54 147 -61 14 -4 46 -18 72 -31 52 -26 96 -31 104 -11 2 7 -6
35 -19 62 -34 70 -60 153 -52 165 15 24 53 8 100 -41 28 -28 75 -69 105 -92
85 -63 671 -649 667 -667 -4 -20 -56 -16 -105 9 -58 29 -277 91 -320 91 -21 0
-65 9 -97 20 -78 27 -286 29 -343 3 -20 -9 -62 -19 -92 -23 -30 -4 -75 -12
-100 -18 -25 -6 -67 -16 -95 -22 -51 -11 -137 -51 -260 -120 -115 -66 -135
-73 -190 -67 -91 8 -161 43 -244 121 -42 39 -101 90 -131 113 -30 22 -73 57
-94 76 -34 31 -129 97 -323 225 -29 20 -55 44 -59 54 -8 26 13 48 46 48 15 0
47 7 70 15 23 8 75 15 115 15 40 0 92 7 115 15 26 9 79 15 136 15 83 0 103 4
170 32 91 38 118 67 111 121 -9 66 -46 102 -129 126 -40 11 -100 30 -133 42
-33 11 -91 32 -130 45 -82 29 -127 48 -175 75 -19 11 -64 34 -99 51 -35 16
-85 45 -110 62 -25 18 -57 37 -71 43 -14 7 -42 19 -63 29 -51 23 -281 173
-332 217 -22 19 -58 45 -80 59 -22 14 -48 35 -59 46 -10 12 -45 38 -78 59 -66
42 -550 526 -618 618 -32 44 -46 55 -69 55 -20 0 -31 -7 -39 -25 -9 -20 -6
-42 23 -130 19 -57 45 -126 58 -152 14 -27 28 -59 32 -73 4 -14 13 -38 21 -55
17 -38 58 -158 85 -250 42 -145 49 -173 49 -201 0 -16 9 -49 20 -73 11 -24 20
-53 20 -66 0 -12 7 -42 15 -65 8 -23 15 -57 15 -75 0 -18 7 -52 15 -75 8 -23
15 -61 15 -84 0 -22 9 -70 20 -104 27 -87 27 -214 0 -273 -14 -32 -20 -66 -20
-124 0 -92 -28 -166 -75 -203 -62 -49 -222 -8 -305 77 -19 20 -55 51 -80 68
-50 34 -182 168 -220 223 -14 19 -65 76 -113 125 -49 50 -96 104 -104 120 -9
17 -30 51 -48 76 -18 25 -39 61 -48 80 -8 19 -29 64 -46 101 -41 91 -91 257
-91 302 0 20 -8 53 -17 74 -12 25 -19 76 -23 157 -3 66 -12 143 -19 170 -7 28
-18 70 -24 94 -13 56 -68 113 -142 146 -69 32 -98 32 -124 -1 -18 -23 -21 -41
-21 -140 0 -102 3 -119 31 -189 17 -42 34 -100 39 -128 5 -29 18 -79 30 -112
12 -33 42 -122 66 -198 24 -75 55 -159 68 -185 13 -26 30 -62 37 -81 8 -18 26
-56 41 -85 14 -28 41 -80 58 -116 18 -36 45 -83 61 -105 45 -61 129 -192 129
-200 0 -4 30 -53 67 -109 36 -55 101 -159 143 -231 42 -71 93 -155 112 -185
19 -30 46 -75 60 -100 14 -25 58 -99 98 -165 95 -158 189 -332 224 -415 10
-25 33 -74 51 -110 18 -36 45 -103 60 -150 15 -47 36 -108 46 -135 11 -28 19
-73 19 -101 0 -29 7 -71 15 -94 8 -23 15 -59 15 -80 0 -21 7 -57 15 -80 8 -23
15 -57 15 -74 0 -17 9 -51 20 -75 11 -24 20 -58 20 -75 0 -48 39 -155 61 -166
14 -8 23 -6 39 10 17 17 20 33 20 124 0 76 5 121 20 168 17 54 20 92 20 269 0
158 -4 216 -15 249 -19 55 -19 175 0 230 10 29 15 82 15 168 0 116 3 135 35
238 44 142 86 196 222 290 l57 39 254 3 c209 2 263 0 300 -13 25 -8 56 -15 69
-15 13 0 40 -8 61 -19 20 -10 55 -21 77 -23 54 -7 126 -41 194 -91 115 -84
171 -142 171 -177 0 -15 7 -48 16 -74 14 -40 15 -55 4 -90 -26 -89 -80 -170
-190 -281 -116 -118 -135 -145 -125 -175 16 -49 83 -43 195 16 25 14 95 40
155 59 61 18 141 45 178 59 65 25 77 26 276 26 160 0 218 -4 251 -15 23 -8 56
-15 74 -15 17 0 53 -9 81 -19 27 -11 92 -31 144 -46 52 -15 112 -38 133 -51
21 -13 64 -36 96 -50 31 -15 83 -46 114 -70 32 -24 86 -65 120 -91 35 -26 91
-76 125 -112 50 -53 67 -80 89 -141 14 -41 35 -96 45 -122 24 -60 24 -110 -1
-183 -11 -32 -20 -74 -20 -92 0 -40 -30 -75 -102 -117 -54 -31 -66 -28 -128
31 -19 19 -69 56 -110 83 -41 28 -93 63 -115 79 -22 16 -69 43 -105 60 -36 18
-85 42 -110 56 -25 13 -67 33 -95 45 -27 12 -57 28 -65 34 -14 12 -202 96
-214 96 -3 0 -29 11 -58 25 -29 13 -91 37 -138 53 -171 58 -336 120 -389 145
-60 29 -208 77 -238 77 -11 0 -46 9 -78 20 -32 11 -84 20 -115 20 -32 0 -77 7
-100 15 -23 8 -69 15 -101 15 -32 0 -70 5 -86 11 -15 6 -64 15 -108 20 -95 10
-112 2 -89 -42 8 -16 20 -29 27 -29 7 0 33 -11 59 -25 26 -14 85 -37 130 -51
46 -14 110 -38 143 -54 33 -15 71 -31 85 -35 31 -9 108 -42 135 -57 10 -6 55
-28 100 -50 44 -21 89 -44 100 -50 11 -6 58 -31 105 -55 217 -111 355 -192
575 -338 61 -40 155 -102 210 -139 260 -171 387 -279 631 -537 81 -86 141
-174 188 -278 6 -13 32 -65 57 -115 25 -50 54 -116 64 -146 9 -30 29 -80 42
-110 40 -87 63 -171 63 -226 0 -28 7 -71 15 -94 12 -34 15 -100 15 -331 0
-184 -4 -298 -11 -316 -6 -15 -15 -54 -19 -86 -5 -32 -20 -80 -35 -105 -14
-26 -39 -76 -56 -112 -17 -36 -39 -81 -50 -101 -10 -20 -19 -45 -19 -54 0 -25
56 -14 110 22 24 15 70 43 103 60 75 40 104 68 166 158 60 86 111 189 145 292
26 77 26 81 26 393 0 246 -3 327 -15 370 -8 30 -15 73 -15 95 0 23 -13 81 -30
130 -16 50 -42 126 -56 170 -14 44 -39 108 -55 143 -16 35 -29 65 -29 68 0 2
-9 23 -19 47 -66 146 -79 176 -91 212 -7 22 -16 45 -20 50 -4 6 -13 27 -19 47
-16 48 -10 59 98 178 47 53 109 133 136 179 28 46 74 120 104 165 30 44 74
118 97 163 24 45 48 90 53 100 24 42 96 220 105 258 4 16 17 50 29 75 18 37
22 70 27 183 5 135 11 156 42 157 15 0 53 -67 71 -129 16 -52 21 -103 24 -248
4 -181 4 -182 -27 -283 -17 -56 -44 -129 -59 -163 -15 -34 -34 -78 -41 -97
-51 -135 -253 -453 -354 -560 -74 -78 -99 -116 -92 -144 3 -13 28 -47 55 -77
28 -30 54 -63 60 -74 34 -69 55 -126 60 -170 5 -40 10 -51 26 -53 27 -4 66 63
76 130 4 26 34 102 67 170 33 68 63 134 67 148 14 49 117 240 129 240 25 0 76
-88 76 -132 0 -11 13 -64 29 -117 22 -73 30 -126 35 -219 6 -113 5 -123 -10
-120 -10 2 -31 23 -48 46 -17 24 -43 51 -58 60 -24 14 -28 14 -52 -1 -17 -11
-27 -29 -31 -54 -3 -21 -12 -61 -20 -89 -12 -40 -15 -117 -15 -351 0 -242 -3
-309 -15 -343 -9 -27 -15 -79 -15 -140 0 -71 -5 -112 -20 -155 -11 -32 -20
-76 -20 -98 0 -22 -6 -63 -14 -91 -17 -59 -35 -136 -46 -186 -4 -19 -16 -55
-28 -80 -59 -128 -104 -216 -155 -302 -16 -26 -26 -52 -22 -58 10 -16 49 -12
122 14 60 22 78 35 146 107 43 46 90 103 104 128 14 26 41 69 59 97 78 122
174 360 197 489 3 17 19 71 35 120 40 122 54 179 62 250 4 33 15 80 23 105 22
63 39 136 47 200 6 49 18 106 39 180 19 70 71 -1 71 -98 1 -31 7 -84 15 -117
18 -72 20 -345 4 -450 -6 -38 -14 -119 -18 -180 -3 -65 -12 -120 -20 -135 -8
-14 -18 -63 -21 -110 -6 -78 -24 -139 -62 -205 -6 -11 -29 -54 -51 -95 -33
-63 -71 -106 -226 -262 -103 -103 -199 -192 -215 -197 -16 -7 -127 -11 -280
-11 -200 0 -263 -3 -296 -15 -63 -22 -282 -21 -316 2 -29 19 -69 98 -86 172
-10 44 -9 55 10 100 12 27 22 60 22 72 0 23 64 229 82 262 5 10 14 44 19 76 5
31 12 71 15 88 10 54 -19 54 -74 0 -26 -24 -60 -52 -77 -60 -16 -9 -46 -30
-65 -47 -19 -17 -58 -49 -87 -71 -29 -21 -60 -47 -70 -58 -17 -17 -46 -37
-202 -139 -36 -23 -102 -60 -145 -82 -114 -58 -177 -109 -235 -192 -62 -89
-66 -122 -20 -167 37 -37 33 -61 -11 -61 -69 0 -279 272 -324 420 -8 25 -26
70 -40 101 -14 31 -30 76 -35 100 -15 76 -32 142 -48 189 -8 25 -19 72 -23
105 -8 54 -22 103 -103 355 -36 112 -49 168 -57 240 -4 36 -14 79 -23 97 -10
18 -17 53 -17 78 0 134 -98 169 -121 43 -4 -24 -14 -63 -22 -88 -22 -63 -39
-135 -47 -202 -6 -41 -19 -74 -48 -120 -62 -96 -71 -107 -114 -139 -40 -28
-44 -29 -162 -29 -101 0 -129 4 -173 22 -49 20 -53 20 -77 4 -21 -13 -26 -25
-26 -55 0 -47 23 -78 98 -133 78 -58 190 -166 219 -211 46 -72 12 -85 -103
-38 -100 41 -129 56 -216 117 -42 30 -80 54 -85 54 -4 1 -51 32 -103 70 -52
39 -120 86 -150 107 -30 20 -68 49 -85 64 -16 16 -46 38 -65 51 -19 13 -54 50
-79 83 -25 33 -73 87 -107 121 -133 130 -132 212 2 137 27 -16 94 -44 149 -64
55 -20 152 -55 215 -79 114 -41 116 -41 235 -38 115 3 123 4 195 40 110 54
219 167 248 258 38 118 37 298 -1 381 -9 19 -27 66 -41 104 -32 95 -86 220
-119 279 -14 26 -40 92 -56 146 -16 54 -35 108 -41 119 -6 12 -26 73 -45 135
-59 193 -47 285 41 322 48 20 226 19 266 -2 17 -9 57 -20 89 -24 39 -6 73 -19
103 -39 24 -17 80 -49 123 -72 140 -72 175 -101 389 -314 l210 -210 51 -107
c28 -58 63 -143 77 -188 15 -45 31 -91 37 -103 17 -31 38 -127 39 -174 0 -95
-31 -98 -94 -8 -26 35 -63 77 -84 92 -20 15 -45 35 -54 45 -10 9 -39 31 -65
49 -27 18 -63 45 -81 61 -18 15 -52 37 -75 49 -23 12 -73 42 -111 68 l-68 46
-110 3 c-127 4 -154 0 -163 -29 -9 -28 14 -52 83 -84 77 -36 301 -257 379
-374 79 -119 172 -308 183 -374 5 -31 16 -69 24 -86 9 -16 16 -50 16 -75 0
-25 5 -57 11 -73 6 -15 15 -56 19 -89 6 -50 17 -75 59 -138 50 -74 129 -144
186 -166 15 -6 54 -10 88 -10 56 0 67 4 126 44 37 24 74 52 83 62 32 36 198
380 223 460 14 45 25 89 25 97 0 8 9 34 20 58 17 38 20 66 20 194 0 128 -3
156 -20 194 -11 24 -20 53 -20 65 0 12 -9 37 -20 56 -11 19 -30 58 -44 85 -13
28 -49 78 -80 113 -31 35 -67 80 -80 100 -32 51 -133 155 -188 195 -25 17 -94
77 -153 132 -59 55 -124 111 -144 124 -20 13 -54 40 -76 60 -22 21 -56 49 -77
64 -20 15 -44 35 -54 44 -9 10 -54 45 -99 78 -45 33 -118 87 -161 120 -141
108 -199 144 -251 160 -29 9 -55 20 -58 25 -16 26 -238 100 -299 100 -20 0
-63 9 -96 21 -88 30 -183 22 -327 -28 -62 -22 -136 -55 -165 -74 -29 -19 -69
-43 -88 -53 -53 -28 -366 -342 -406 -407 -33 -55 -49 -69 -79 -69 -24 0 -64
71 -96 170 -17 52 -50 129 -75 171 -24 42 -44 81 -44 87 0 10 -49 139 -75 197
-7 17 -17 44 -21 60 -8 34 -122 277 -189 405 -13 25 -36 70 -50 100 -27 57
-98 193 -127 245 -9 17 -30 59 -47 95 -16 36 -39 81 -50 100 -11 19 -33 64
-49 100 -16 36 -44 82 -61 104 -17 21 -31 43 -31 48 0 17 -103 118 -119 118
-42 0 -54 -70 -26 -150 8 -23 15 -63 15 -89 0 -56 26 -116 72 -167 36 -41 102
-150 132 -219 9 -22 22 -49 28 -59 34 -61 88 -171 88 -178 0 -5 19 -39 42 -76
54 -87 108 -197 108 -219 0 -10 14 -61 30 -113 18 -58 30 -117 30 -152 0 -59
28 -142 97 -288 19 -41 54 -136 78 -211 23 -74 52 -153 62 -175 11 -21 26 -55
32 -76 12 -37 52 -85 105 -126 26 -20 40 -22 138 -22 103 0 112 2 171 32 57
31 70 33 172 36 76 2 116 -1 131 -10 177 -110 205 -136 255 -241 34 -73 37
-117 9 -142 -18 -16 -25 -17 -63 -6 -23 7 -61 22 -85 32 -23 11 -61 23 -85 28
-23 4 -69 21 -102 37 -54 26 -72 29 -182 32 -114 3 -123 2 -143 -18 -20 -20
-22 -30 -18 -115 5 -151 -7 -150 -172 16 -108 108 -126 132 -215 279 -97 161
-95 154 -190 450 -39 122 -55 164 -101 267 -8 17 -14 34 -14 38 0 3 -20 34
-44 68 -24 34 -47 72 -51 85 -3 12 -22 43 -42 69 -43 56 -104 184 -113 238 -8
46 -26 118 -46 191 -8 28 -14 61 -14 73 0 12 -7 36 -16 52 -16 32 -78 232 -87
284 -3 17 -22 75 -41 130 -19 55 -44 132 -55 170 -39 134 -110 337 -130 371
-11 19 -28 60 -37 92 -9 31 -29 84 -44 117 -15 33 -33 78 -40 100 -7 22 -16
45 -20 50 -4 6 -13 28 -20 50 -7 22 -23 60 -36 85 -34 66 -62 132 -70 165 -7
28 -66 153 -121 255 -13 25 -35 70 -49 100 -14 30 -36 75 -50 100 -14 25 -36
70 -50 100 -14 30 -30 64 -36 74 -30 55 -88 171 -88 177 0 5 -14 32 -31 60
-30 51 -31 55 -24 133 5 54 16 99 35 140 15 34 29 66 31 72 2 6 60 94 128 197
118 178 127 189 178 214 45 22 63 25 109 20 109 -11 241 -110 264 -197 6 -25
27 -77 45 -116 39 -84 85 -230 85 -270 0 -16 9 -49 20 -73 11 -24 20 -57 20
-74 0 -33 19 -104 57 -212 13 -38 32 -92 41 -119 20 -57 81 -126 112 -126 11
0 32 12 46 26 22 21 25 31 20 62 -4 20 -10 82 -15 137 -4 55 -13 113 -19 128
-7 16 -12 49 -12 75 0 26 -9 67 -20 91 -11 24 -20 60 -20 81 0 21 -7 57 -15
80 -8 23 -15 68 -15 100 0 32 -7 77 -15 100 -10 28 -15 80 -15 150 0 81 -5
121 -20 165 -27 79 -30 348 -4 398 9 17 20 61 24 97 4 37 14 82 23 101 31 69
67 167 96 262 18 60 46 124 74 169 65 103 75 116 104 135 23 16 27 15 60 -2
33 -18 82 -80 144 -179 34 -55 76 -62 108 -18 34 48 27 94 -29 218 -41 89 -50
119 -50 165 0 31 -7 76 -15 99 -21 60 -22 539 -1 614 8 28 22 80 31 116 88
338 315 819 456 965 21 22 58 66 81 97 24 31 70 92 102 135 88 116 305 328
425 413 56 40 126 94 155 120 54 49 122 98 301 221 108 74 316 189 343 189 7
0 34 11 60 24 26 13 92 38 146 55 54 18 107 36 118 42 39 21 248 79 285 79 21
0 58 9 82 20 24 11 65 20 91 20 26 0 67 7 90 15 23 8 57 15 75 15 18 0 52 7
75 15 23 8 62 15 85 15 56 0 75 8 75 31 0 22 -66 59 -125 69 -22 4 -61 12 -87
19 -27 6 -69 16 -95 22 -27 7 -66 15 -88 19 -65 12 -155 57 -155 77 1 23 27
55 64 79 25 16 59 20 200 26 94 3 194 11 221 17 30 6 273 10 621 10 459 1 579
-2 610 -13 22 -7 97 -17 168 -21 72 -4 148 -13 169 -21 22 -8 60 -14 85 -14
45 0 87 -10 232 -57 41 -13 134 -42 205 -65 72 -22 151 -49 177 -59 42 -17 77
-19 370 -19 178 0 333 3 346 6 25 7 30 39 6 48 -9 3 -87 6 -174 6 -130 0 -170
4 -222 20 -34 11 -82 20 -105 20 -82 0 -431 143 -598 245 -145 89 -341 188
-415 210 -14 4 -47 19 -75 33 -60 30 -246 100 -295 112 -19 4 -71 18 -115 30
-44 12 -96 26 -115 30 -19 4 -52 15 -72 24 -21 9 -55 16 -76 16 -22 0 -59 7
-82 15 -23 8 -61 15 -84 15 -22 0 -66 7 -96 15 -30 8 -89 15 -131 15 -55 0
-89 6 -120 20 -36 16 -66 20 -159 20 -93 0 -123 -4 -159 -20 -30 -14 -65 -20
-115 -20 -39 -1 -98 -7 -131 -15 -33 -8 -92 -15 -131 -15 -39 0 -91 -7 -114
-15 -23 -8 -57 -15 -74 -15 -17 0 -51 -9 -75 -20 -24 -11 -53 -20 -65 -20 -12
0 -62 -14 -111 -30 -49 -17 -100 -30 -114 -30 -14 0 -46 -9 -70 -20 -24 -11
-62 -20 -86 -20 -23 0 -62 -7 -85 -15 -23 -8 -59 -15 -80 -15 -21 0 -57 -7
-80 -15 -23 -8 -51 -15 -61 -15 -10 0 -70 -25 -133 -56 -119 -57 -210 -126
-227 -172 -20 -53 10 -46 136 32 l60 37 156 -3 c138 -3 160 -5 178 -22 12 -11
21 -31 21 -46 0 -42 -30 -61 -107 -70 -38 -4 -83 -15 -100 -24 -18 -9 -42 -16
-55 -16 -35 0 -311 -92 -403 -135 -16 -7 -43 -17 -60 -21 -85 -20 -286 -165
-395 -284 -45 -50 -123 -123 -174 -164 -154 -125 -242 -224 -376 -426 -67
-102 -143 -223 -168 -270 -88 -166 -108 -200 -172 -297 -36 -54 -71 -109 -77
-123 -24 -52 -53 -119 -53 -124 0 -2 -15 -31 -34 -63 -19 -32 -40 -78 -46
-103 -6 -25 -24 -70 -39 -100 -15 -30 -35 -82 -43 -115 -27 -102 -40 -158 -47
-200 -15 -87 -44 -88 -106 -4 -101 137 -309 313 -480 406 -139 75 -268 134
-281 129 -19 -7 -18 -45 3 -87 30 -61 115 -183 153 -219 21 -19 54 -60 73 -90
20 -30 47 -68 61 -85 13 -16 43 -66 66 -110 l41 -79 -3 -143 -3 -142 -40 -41
c-22 -23 -67 -57 -101 -76 -54 -30 -69 -34 -133 -34 -66 0 -81 4 -166 46 -77
37 -105 58 -166 122 -41 43 -91 101 -111 130 -69 97 -128 234 -147 341 -7 42
-32 61 -56 41 -75 -63 -122 -311 -104 -555 12 -166 39 -264 123 -440 83 -172
140 -258 238 -358 98 -99 142 -133 363 -281 219 -148 233 -168 234 -354 1
-128 -8 -157 -68 -221 -20 -21 -65 -58 -101 -82 -116 -78 -236 -195 -306 -301
-35 -54 -64 -100 -64 -104 0 -18 -45 -94 -58 -99 -9 -3 -22 1 -30 9 -13 13
-13 26 -4 88 23 151 76 328 138 465 8 17 14 34 14 38 0 4 16 29 36 56 50 68
84 143 84 181 -1 52 -57 103 -150 137 -32 11 -169 115 -236 178 -28 26 -63 66
-77 88 -14 22 -35 51 -48 65 -38 38 -104 138 -147 220 -22 42 -44 85 -50 95
-6 11 -18 36 -26 55 -8 19 -29 67 -47 105 -17 39 -49 124 -70 190 -21 66 -49
154 -63 195 -24 69 -26 87 -26 261 0 140 4 197 15 229 10 28 15 80 15 150 0
81 5 121 20 165 14 42 20 84 20 150 0 57 6 109 15 135 9 26 15 78 15 135 0 57
6 109 15 135 8 23 15 74 15 112 0 43 6 80 16 99 8 17 19 52 23 77 9 52 25 121
47 198 8 28 14 61 14 73 0 12 7 36 16 52 8 17 19 52 23 77 29 167 101 387 175
532 13 25 27 58 30 75 8 33 36 98 70 165 13 25 27 56 31 70 10 33 41 104 69
160 13 25 27 56 31 70 18 60 46 110 63 110 29 0 39 -13 56 -72 10 -31 34 -83
55 -115 54 -81 205 -226 268 -258 52 -25 73 -49 73 -78 0 -9 -37 -53 -83 -99
-46 -47 -116 -135 -158 -199 -42 -63 -83 -125 -92 -139 -10 -14 -51 -77 -93
-140 -42 -63 -83 -131 -91 -150 -7 -19 -32 -73 -54 -120 -96 -199 -159 -395
-179 -550 -4 -30 -14 -72 -23 -92 -13 -28 -17 -67 -17 -149 0 -100 3 -117 29
-177 16 -37 34 -87 41 -112 6 -25 29 -65 49 -90 21 -25 44 -56 51 -69 7 -13
29 -42 49 -65 21 -23 47 -57 59 -77 12 -20 69 -82 126 -137 112 -108 157 -131
183 -96 24 33 12 90 -38 176 -16 26 -42 96 -60 155 -17 59 -38 120 -45 135 -8
15 -14 58 -14 96 0 38 -7 89 -15 112 -19 54 -19 116 0 170 10 27 15 80 15 147
0 101 1 108 36 173 56 107 68 114 182 118 92 4 101 2 166 -28 38 -18 90 -47
116 -66 89 -64 213 -257 250 -389 25 -90 28 -99 68 -210 26 -69 33 -80 55 -83
20 -3 29 3 42 27 22 44 55 151 55 182 0 15 7 46 15 69 10 28 15 81 15 155 0
86 4 124 19 161 10 27 34 101 54 164 54 176 102 298 134 339 16 20 37 50 47
66 11 17 37 48 58 70 22 22 46 54 55 70 9 17 42 58 75 93 32 35 70 81 85 103
22 33 24 41 12 55 -24 29 -100 7 -237 -71 -24 -13 -53 -27 -65 -31 -12 -3 -42
-21 -67 -38 -72 -52 -158 -76 -268 -76 -122 0 -148 15 -194 108 -28 57 -34 79
-36 154 -3 51 1 102 8 120 6 18 15 56 20 84 5 29 28 86 52 128 37 68 52 83
116 126 94 63 116 90 108 134 -8 41 -27 58 -98 90 -114 51 -264 200 -296 295
-14 40 -16 269 -3 303 5 13 18 32 28 43 10 11 32 37 48 59 16 21 54 57 85 80
54 40 57 41 145 44 85 3 93 2 150 -28 33 -18 71 -42 83 -54 31 -27 92 -153 92
-187 0 -15 7 -46 15 -69 8 -23 15 -62 15 -85 0 -23 7 -62 15 -85 8 -23 15 -54
15 -69 0 -38 43 -95 85 -115 36 -18 38 -17 70 6 18 13 53 50 77 83 85 114 176
202 261 251 73 42 90 48 171 56 116 12 205 -2 252 -37 35 -27 72 -95 81 -149
6 -40 -39 -192 -77 -257 -16 -26 -41 -90 -55 -141 -15 -51 -36 -114 -46 -140
-21 -51 -17 -78 11 -78 10 0 55 35 101 78 46 42 100 88 119 102 19 13 96 81
171 150 187 173 282 253 326 276 21 10 62 34 91 51 86 54 205 110 244 116 20
3 52 13 70 21 39 18 137 53 303 106 66 21 136 45 155 53 55 23 144 47 177 47
17 0 50 7 73 15 23 8 56 15 72 15 16 0 45 8 66 18 20 11 74 29 120 42 61 18
82 28 82 41 0 9 -7 20 -16 23 -9 3 -145 6 -304 6 -230 0 -296 3 -330 15 -24 8
-77 15 -120 15 -50 0 -101 7 -142 20 -43 14 -91 20 -154 20 -55 0 -108 6 -134
15 -23 8 -52 15 -64 15 -29 0 -134 51 -174 85 -38 32 -101 116 -120 158 -28
65 -5 194 45 249 18 21 104 63 148 74 31 7 137 49 260 102 102 44 287 102 325
102 18 0 57 8 87 17 48 15 59 15 101 3 26 -7 88 -17 137 -20 50 -3 111 -13
137 -20 45 -13 50 -13 75 6 42 31 51 68 27 101 -40 54 -55 55 -589 50 -564 -5
-524 1 -745 -111 -249 -126 -342 -180 -405 -236 -33 -29 -138 -106 -219 -159
-28 -18 -80 -61 -116 -95 -36 -33 -81 -75 -100 -92 -19 -16 -51 -50 -70 -74
-50 -61 -68 -52 -98 47 -33 106 -85 179 -166 233 -54 34 -66 47 -66 69 0 22
15 35 98 87 53 34 124 76 157 94 33 19 89 53 125 76 36 22 146 80 245 129 99
48 230 111 290 141 61 30 116 54 123 54 7 0 32 10 55 22 23 11 89 38 147 59
213 75 336 121 380 141 64 29 178 68 230 78 40 8 246 73 370 116 25 9 65 19
90 24 25 5 58 13 73 19 16 6 45 11 66 11 21 0 58 7 81 15 23 8 61 15 84 15 22
0 61 9 85 20 24 11 62 20 85 20 22 0 66 7 96 15 30 8 96 15 146 15 55 0 108 6
134 15 29 10 83 15 169 15 104 0 134 4 170 20 30 14 65 20 116 20 40 0 92 7
115 15 23 8 73 15 110 15 37 0 87 7 110 15 29 10 82 15 170 15 90 0 140 5 171
16 24 8 89 17 144 20 55 2 135 12 177 21 68 14 100 15 260 5 242 -16 328 -26
358 -42 25 -14 185 -69 410 -141 69 -22 148 -49 175 -59 54 -21 223 -76 425
-140 69 -22 145 -47 170 -55 41 -14 236 -75 285 -88 21 -6 254 -88 441 -155
62 -22 129 -49 150 -60 22 -10 53 -22 69 -26 17 -4 44 -14 60 -21 172 -78 324
-127 420 -135 50 -4 105 -13 122 -21 28 -11 40 -11 80 1 27 7 86 16 133 20 47
3 90 9 97 13 6 4 34 12 62 17 28 5 75 20 104 33 28 14 94 39 145 56 52 18 116
46 143 62 28 16 52 29 55 29 13 0 156 67 194 91 180 112 457 229 546 229 17 0
51 7 74 15 31 11 86 15 201 15 146 0 161 -2 179 -20 11 -11 20 -24 20 -29 0
-10 -58 -172 -81 -229 -16 -38 -7 -60 34 -80 19 -9 32 -10 46 -2 35 18 102
127 192 310 13 25 35 63 49 85 15 22 45 74 66 115 28 54 68 105 139 180 167
175 264 268 329 314 133 96 301 209 350 235 28 15 81 44 117 64 37 19 90 42
118 51 29 8 68 24 89 35 100 54 137 65 223 69 72 3 89 1 103 -14 11 -11 15
-24 11 -38 -3 -12 -10 -48 -14 -81 -4 -33 -13 -71 -21 -85 -7 -13 -16 -56 -20
-95 -10 -104 -46 -173 -147 -289 -24 -26 -43 -56 -43 -66 0 -20 54 -70 76 -70
20 0 92 68 111 104 9 17 26 43 39 58 12 15 28 44 34 65 7 21 22 58 33 83 11
25 23 79 27 120 4 41 14 92 23 112 10 21 17 47 17 59 0 35 42 163 60 184 10
11 30 40 45 65 44 72 164 188 223 217 29 14 65 42 80 62 28 37 143 153 228
230 61 56 187 147 234 170 19 9 56 30 83 45 40 24 64 29 160 37 61 5 130 7
152 3 66 -10 168 -43 205 -68 19 -12 55 -32 80 -44 25 -12 72 -44 105 -72 65
-55 203 -127 280 -146 17 -4 69 -27 117 -51 48 -23 91 -43 96 -43 5 0 14 -12
21 -27 12 -26 11 -30 -20 -55 -18 -15 -49 -31 -69 -34 -19 -3 -56 -12 -82 -20
-36 -12 -87 -15 -215 -12 -146 3 -174 6 -213 24 -25 12 -49 23 -55 25 -25 10
-155 85 -205 119 -65 45 -224 96 -265 86 -20 -5 -26 -12 -23 -29 4 -26 37 -44
106 -57 87 -16 189 -106 140 -123 -7 -2 -26 0 -43 5 -16 4 -145 8 -285 7
l-255 -2 -63 -29 c-89 -42 -92 -49 -92 -203 0 -109 4 -137 21 -175 33 -72 23
-93 -94 -206 -56 -54 -127 -120 -158 -146 -60 -50 -109 -130 -129 -210 -14
-54 -30 -71 -83 -88 -65 -21 -71 -83 -9 -95 53 -11 137 -37 150 -47 17 -15 15
-45 -4 -52 -9 -3 -47 -6 -85 -6 -97 0 -109 -13 -109 -122 0 -46 -7 -105 -15
-132 -8 -27 -15 -84 -15 -127 0 -43 -5 -90 -11 -106 -6 -15 -14 -46 -19 -68
-10 -43 -54 -177 -70 -210 -18 -39 -67 -170 -74 -199 -6 -25 -60 -110 -173
-275 -21 -30 -65 -85 -98 -122 -33 -36 -73 -83 -90 -103 -16 -20 -44 -46 -61
-58 -17 -12 -47 -44 -65 -72 -19 -28 -59 -77 -90 -111 -31 -33 -78 -87 -104
-120 -26 -33 -64 -78 -84 -100 -21 -22 -50 -60 -66 -85 -15 -25 -43 -58 -61
-75 -18 -16 -58 -68 -88 -115 -31 -47 -71 -105 -90 -130 -84 -113 -111 -339
-61 -505 14 -46 32 -86 40 -89 37 -14 56 17 106 181 34 107 74 182 122 227 43
40 144 86 190 86 61 0 77 25 77 118 0 101 26 155 122 251 78 80 95 90 188 115
36 9 88 24 116 32 28 8 71 14 96 14 50 0 92 25 104 63 15 51 99 177 152 229
37 37 91 75 155 108 96 50 100 52 158 45 57 -7 60 -6 88 24 18 19 35 55 46 95
15 55 26 72 74 119 89 86 195 153 295 187 134 45 182 40 251 -23 39 -36 70
-39 79 -8 3 9 8 39 11 66 9 62 49 198 74 251 44 91 145 180 322 282 l106 62
92 0 c51 0 101 4 111 10 10 5 24 27 30 47 24 75 53 112 129 166 42 30 87 58
101 62 14 4 54 27 89 51 35 24 85 50 111 58 26 8 61 21 78 30 23 12 60 16 145
16 132 0 158 12 178 80 7 21 28 56 48 77 52 55 173 133 233 148 64 17 93 44
108 103 7 26 39 101 71 167 48 101 70 132 131 195 81 84 186 144 273 159 28 5
70 13 95 20 25 6 56 13 70 15 14 3 39 18 55 34 31 30 192 138 222 149 10 4 46
26 79 50 34 24 66 43 71 43 6 0 46 23 89 51 43 28 85 54 93 57 9 3 39 20 68
39 62 41 178 104 253 139 54 24 75 36 191 99 150 81 171 155 39 139 -30 -3
-75 -15 -99 -25 -24 -10 -51 -19 -60 -19 -18 0 -205 -58 -386 -119 -66 -23
-133 -41 -150 -41 -16 0 -50 -9 -74 -20 -24 -11 -53 -20 -65 -20 -11 0 -82
-20 -156 -45 -74 -25 -196 -65 -270 -89 -74 -25 -148 -49 -165 -54 -54 -18
-129 -35 -190 -42 -33 -4 -73 -13 -88 -19 -16 -6 -55 -11 -88 -11 -38 0 -73
-7 -97 -19 -20 -10 -50 -21 -66 -25 -16 -4 -66 -26 -110 -48 -45 -23 -104 -53
-133 -67 -28 -14 -89 -61 -135 -103 -83 -76 -177 -151 -247 -197 -20 -13 -102
-88 -182 -168 -80 -79 -161 -154 -181 -166 -20 -12 -74 -58 -120 -102 -164
-158 -228 -195 -353 -205 -79 -7 -212 -39 -329 -79 -99 -35 -186 -21 -186 28
0 47 178 139 292 151 109 12 169 57 217 162 26 57 62 97 121 133 25 15 59 40
75 55 17 15 46 36 65 48 19 11 123 110 230 219 207 210 312 292 433 341 80 32
196 101 208 123 6 13 4 22 -8 34 -22 22 -62 15 -148 -24 l-67 -31 -92 45 c-50
25 -95 45 -99 45 -4 0 -29 14 -56 30 -27 17 -80 41 -118 54 -189 65 -194 106
-11 106 145 0 355 51 533 130 120 53 209 103 305 169 61 42 104 62 220 102 30
11 64 23 75 29 36 18 169 61 215 70 25 4 58 13 73 19 16 6 45 11 66 11 21 0
58 7 81 15 26 9 78 15 135 15 66 0 108 6 150 20 46 16 84 20 185 20 88 0 141
5 170 15 26 9 78 15 132 15 111 0 140 12 201 83 55 65 80 74 141 57 42 -11 47
-10 106 21 49 27 68 44 87 79 31 56 81 102 147 135 58 29 88 31 107 9z m621
-311 c16 -14 18 -33 18 -141 0 -162 10 -193 82 -262 31 -30 66 -75 77 -100 23
-51 27 -108 8 -116 -7 -2 -39 5 -71 16 -33 11 -79 20 -102 20 -48 0 -141 39
-171 72 -15 17 -19 45 -25 187 -3 91 -9 182 -13 202 -6 33 -4 38 33 67 38 30
116 71 136 72 5 0 18 -7 28 -17z m-162 -622 c25 -11 65 -21 89 -21 66 0 201
-45 239 -79 71 -66 22 -130 -137 -180 -56 -18 -131 -47 -165 -65 -33 -18 -86
-41 -116 -51 -30 -10 -94 -39 -143 -65 -85 -45 -91 -50 -133 -121 -24 -41 -44
-78 -44 -83 0 -5 -16 -31 -36 -59 -20 -27 -49 -79 -66 -116 -16 -36 -40 -87
-54 -112 -18 -34 -24 -63 -24 -107 0 -33 -7 -79 -15 -102 -20 -56 -19 -170 1
-235 29 -92 0 -136 -76 -114 -21 7 -54 24 -72 39 l-33 28 -3 238 c-3 263 -9
223 66 436 11 31 45 107 76 170 60 123 65 142 39 170 -22 24 -28 23 -82 -16
-26 -18 -65 -39 -87 -46 -43 -14 -94 -47 -166 -107 -55 -45 -270 -154 -340
-173 -41 -11 -51 -10 -73 4 -66 43 -18 96 245 276 52 36 130 92 173 125 133
102 165 123 219 141 29 9 154 67 278 128 123 60 243 113 265 117 59 11 124 3
175 -20z m422 -313 c28 -24 58 -114 58 -176 0 -33 7 -79 15 -102 8 -23 15 -68
15 -100 0 -32 7 -77 15 -100 8 -23 15 -72 15 -109 0 -37 7 -91 16 -121 10 -36
19 -126 24 -260 5 -113 13 -218 19 -233 7 -19 11 -217 11 -591 0 -470 -2 -571
-15 -612 -8 -27 -15 -88 -15 -135 0 -53 -6 -103 -16 -130 -8 -24 -19 -91 -24
-149 -5 -58 -14 -125 -20 -150 -27 -106 -33 -138 -40 -195 -4 -34 -12 -71 -19
-83 -16 -30 -39 -105 -51 -165 -5 -26 -23 -76 -38 -110 -16 -34 -35 -80 -42
-102 -7 -22 -16 -44 -20 -50 -5 -5 -15 -32 -23 -60 -8 -27 -33 -86 -56 -129
-22 -44 -41 -83 -41 -88 0 -5 -19 -39 -42 -76 -23 -37 -54 -92 -70 -122 -81
-151 -123 -223 -195 -328 -18 -26 -45 -66 -60 -89 -20 -30 -34 -42 -48 -40
-27 3 -30 36 -11 94 10 29 16 81 16 134 0 48 5 100 12 116 6 15 14 73 19 128
4 55 14 168 23 250 12 111 16 257 16 559 l0 409 35 111 c20 61 54 148 77 193
28 57 43 103 48 150 5 38 16 90 24 117 9 27 16 66 16 86 0 21 7 57 15 80 10
28 15 83 16 164 0 66 5 162 10 211 6 50 13 111 16 138 3 26 -1 78 -7 115 -7
37 -16 126 -20 197 -6 118 -10 139 -45 227 -39 100 -57 120 -84 93 -21 -21
-18 -80 8 -135 11 -25 21 -57 21 -71 0 -15 7 -46 15 -69 12 -35 15 -106 15
-380 0 -274 -3 -345 -15 -380 -8 -23 -15 -68 -15 -100 0 -32 -6 -76 -14 -98
-8 -22 -18 -62 -21 -89 -12 -82 -85 -303 -105 -313 -15 -8 -18 -4 -24 28 -3
20 -6 110 -6 198 0 118 -4 173 -15 204 -8 23 -15 67 -15 98 0 30 -6 78 -14
106 -22 79 -47 186 -57 236 -10 58 -105 344 -134 407 -8 17 -15 33 -15 36 0 3
-17 40 -37 84 -34 71 -38 89 -44 193 -15 251 3 345 101 535 102 198 137 253
181 286 37 28 282 149 302 149 6 0 37 12 67 26 52 25 243 92 266 93 5 1 17 -5
26 -11z m-1982 -557 c13 -25 13 -108 0 -185 -15 -94 -89 -234 -167 -316 -72
-77 -94 -85 -145 -49 -45 32 -88 97 -88 133 0 32 14 56 84 143 61 74 279 293
293 293 7 0 17 -9 23 -19z m-507 -452 c13 -6 32 -30 42 -52 23 -55 55 -88 145
-152 52 -36 101 -61 160 -79 99 -32 117 -46 126 -95 3 -20 10 -49 15 -66 6
-16 14 -50 19 -75 9 -48 51 -175 74 -225 8 -16 17 -41 21 -55 4 -14 21 -53 37
-88 16 -34 33 -87 38 -117 5 -29 22 -88 39 -130 17 -42 31 -87 31 -99 0 -13 7
-43 15 -66 8 -23 15 -75 15 -115 0 -40 6 -90 14 -111 7 -22 16 -75 20 -119 4
-44 14 -102 23 -129 12 -38 14 -68 9 -135 -4 -47 -9 -117 -10 -156 -2 -38 -8
-104 -14 -145 -6 -41 -11 -114 -12 -161 0 -50 -6 -104 -15 -129 -8 -23 -15
-59 -15 -80 0 -21 -7 -57 -15 -80 -8 -23 -15 -56 -15 -72 0 -16 -8 -45 -19
-66 -10 -20 -21 -50 -25 -66 -7 -29 -63 -145 -103 -216 -11 -19 -31 -53 -43
-75 -46 -80 -65 -105 -82 -105 -23 0 -32 39 -17 75 7 17 16 68 20 115 4 47 13
121 19 165 6 44 9 114 6 155 -8 119 -32 306 -41 320 -5 7 -11 43 -15 79 -7 69
-19 123 -51 232 -10 36 -19 77 -19 90 0 32 -43 158 -64 192 -21 31 -66 173
-66 208 0 15 -13 52 -29 82 -16 30 -41 97 -56 147 -15 51 -42 120 -60 154 -17
33 -38 79 -45 101 -18 58 -119 267 -141 290 -9 11 -32 49 -50 85 -34 70 -91
145 -121 161 -26 14 -57 -6 -65 -41 -3 -16 -14 -37 -24 -46 -17 -15 -22 -16
-46 -3 -43 23 -119 104 -143 153 -20 43 -21 48 -6 70 15 24 23 28 76 40 27 6
135 103 167 151 11 17 29 57 39 90 31 97 144 202 221 205 7 0 23 -5 36 -11z
m1019 -426 c9 -10 30 -67 48 -128 18 -60 43 -136 56 -167 13 -32 24 -75 24
-96 0 -22 7 -59 15 -82 8 -23 15 -62 15 -85 0 -23 6 -60 14 -81 37 -108 37
-931 0 -1038 -8 -21 -14 -64 -14 -95 0 -91 -67 -270 -101 -271 -24 0 -49 70
-49 135 0 30 -11 89 -24 132 -13 43 -30 105 -39 138 -8 33 -20 80 -27 105 -6
25 -15 92 -20 150 -4 58 -15 125 -24 149 -9 25 -16 74 -16 116 0 40 -7 92 -15
115 -8 23 -15 69 -15 101 0 32 -5 70 -11 86 -6 15 -14 46 -19 68 -5 22 -23 80
-40 130 -16 49 -30 101 -30 116 0 15 -13 52 -30 83 -37 71 -64 168 -56 199 9
36 114 129 182 161 32 15 72 38 88 52 37 28 67 31 88 7z m-1672 -83 c21 -11
40 -60 40 -102 0 -33 -32 -67 -88 -94 -20 -9 -50 -27 -67 -40 -16 -12 -51 -34
-77 -48 -27 -15 -87 -55 -135 -89 -49 -35 -161 -111 -251 -171 -90 -59 -180
-122 -200 -140 -45 -40 -189 -141 -382 -268 -80 -53 -173 -119 -208 -147 -35
-28 -84 -63 -110 -78 -133 -76 -549 -365 -652 -452 -94 -81 -307 -250 -380
-303 -24 -18 -67 -54 -95 -79 -27 -26 -99 -81 -160 -123 -209 -146 -239 -170
-334 -269 -214 -219 -289 -292 -341 -330 -78 -56 -185 -162 -230 -227 -21 -30
-50 -66 -65 -80 -28 -26 -183 -250 -222 -321 -12 -21 -35 -81 -52 -132 -49
-150 -80 -241 -91 -262 -5 -11 -17 -40 -25 -65 -9 -25 -26 -61 -39 -80 -33
-51 -76 -199 -76 -263 0 -30 -7 -74 -15 -97 -11 -32 -15 -91 -15 -245 0 -154
-4 -213 -15 -245 -21 -59 -21 -281 0 -340 8 -23 15 -54 15 -68 0 -14 9 -55 19
-91 31 -107 44 -162 51 -226 8 -66 23 -137 46 -205 9 -25 29 -85 45 -134 34
-104 45 -132 80 -201 52 -102 167 -296 193 -324 8 -9 29 -45 46 -81 18 -36 40
-74 50 -85 16 -18 120 -192 120 -201 0 -3 54 -87 106 -164 89 -132 193 -288
210 -316 11 -19 32 -47 46 -62 14 -15 43 -54 65 -87 22 -33 51 -69 63 -80 12
-11 39 -45 60 -75 21 -30 48 -64 60 -75 12 -11 40 -45 62 -77 42 -59 110 -112
218 -169 36 -19 96 -63 135 -99 38 -36 88 -79 110 -95 63 -47 105 -95 105
-123 0 -26 -60 -92 -84 -92 -38 0 -270 153 -359 236 -33 32 -84 74 -113 94
-29 20 -67 48 -85 63 -19 15 -88 64 -154 107 -66 44 -151 108 -189 142 -37 34
-89 78 -115 97 -73 56 -220 201 -260 258 -20 28 -61 86 -92 130 -47 65 -169
281 -169 298 0 11 21 4 38 -13 66 -69 127 -140 163 -189 41 -56 480 -498 546
-550 67 -52 88 14 28 89 -19 24 -49 63 -66 88 -18 25 -42 56 -55 70 -34 38
-111 154 -148 223 -71 134 -137 240 -155 252 -6 3 -29 32 -51 63 -22 31 -85
111 -140 177 -55 66 -121 146 -146 177 -47 57 -150 138 -177 138 -33 0 -41
-27 -24 -88 9 -31 19 -73 22 -92 3 -19 14 -43 24 -55 11 -11 36 -51 56 -90 21
-38 44 -77 51 -86 8 -8 14 -19 14 -24 0 -5 8 -17 17 -27 23 -25 4 -45 -26 -27
-11 8 -23 19 -25 25 -4 11 -74 106 -191 259 -22 28 -60 79 -85 111 -24 32 -96
116 -160 185 -88 96 -125 145 -158 210 -23 46 -65 120 -93 164 -27 44 -62 100
-76 125 -30 49 -120 177 -140 198 -61 63 -256 496 -308 682 -31 114 -162 382
-254 520 -76 113 -156 264 -181 340 -10 30 -37 109 -59 175 -23 66 -41 132
-41 146 0 15 -7 46 -15 69 -18 50 -20 123 -4 153 27 51 61 77 105 77 23 0 61
7 84 15 23 8 62 15 86 15 23 0 54 4 68 10 39 14 267 60 302 60 17 0 51 7 74
15 26 9 78 15 135 15 58 0 109 6 136 15 24 9 71 20 104 25 138 21 185 31 270
60 50 16 152 50 227 74 92 30 159 59 205 88 37 24 88 53 113 63 109 46 206
115 295 208 79 82 100 113 165 238 l75 144 114 56 c112 56 157 92 187 151 9
17 32 53 52 82 74 106 114 136 180 136 38 0 153 35 222 67 59 27 169 102 227
155 47 42 59 48 83 43 19 -4 45 1 76 14 25 12 52 21 58 21 23 1 227 144 301
211 27 26 76 63 109 84 86 55 136 104 158 155 25 59 41 70 108 70 50 0 62 5
132 53 166 114 240 177 417 354 l185 184 130 65 c72 36 147 80 166 98 19 18
53 44 75 57 22 13 72 53 110 90 80 75 92 82 184 114 78 28 77 28 101 15z m189
-247 c52 -36 59 -38 145 -41 74 -3 95 -8 113 -24 12 -11 50 -77 84 -145 47
-94 60 -129 53 -141 -11 -16 -89 -67 -204 -132 -283 -160 -752 -487 -910 -635
-25 -23 -63 -55 -85 -71 -50 -36 -171 -156 -210 -209 -36 -50 -195 -208 -255
-255 -25 -19 -124 -114 -221 -210 -130 -129 -192 -200 -239 -270 -34 -52 -71
-104 -81 -115 -10 -11 -56 -78 -103 -150 -47 -71 -98 -148 -114 -170 -16 -22
-62 -107 -102 -190 -41 -82 -93 -179 -116 -215 -22 -36 -67 -110 -99 -165 -32
-55 -66 -112 -76 -126 -10 -15 -38 -85 -63 -155 -25 -71 -59 -166 -75 -212
l-31 -83 0 -263 c0 -209 3 -272 15 -306 8 -23 15 -68 15 -99 0 -41 7 -67 24
-98 14 -23 28 -53 31 -65 12 -38 55 -88 75 -88 32 0 40 33 40 158 0 81 5 133
15 162 8 23 15 66 15 95 0 54 17 82 43 72 13 -5 22 -20 61 -109 14 -31 30 -59
35 -63 6 -3 18 -32 27 -63 9 -31 31 -82 49 -114 18 -31 36 -67 40 -80 5 -12
34 -75 66 -138 119 -237 215 -481 263 -670 9 -36 24 -85 32 -110 8 -25 35
-108 59 -185 52 -165 100 -301 157 -443 40 -99 46 -109 147 -214 108 -112 164
-158 370 -306 64 -45 132 -98 151 -116 61 -58 178 -126 465 -270 256 -129 282
-145 313 -186 104 -142 130 -172 243 -272 71 -64 161 -129 229 -165 25 -14 64
-35 86 -48 23 -12 51 -26 64 -30 12 -4 82 -47 157 -97 100 -66 143 -102 166
-136 18 -26 54 -70 80 -98 50 -54 115 -151 146 -219 13 -27 21 -76 25 -151 l7
-112 -29 -10 c-27 -9 -39 -4 -153 74 -68 46 -153 110 -188 142 -35 31 -87 73
-115 92 -28 19 -261 244 -517 500 -256 256 -494 488 -530 515 -77 61 -316 219
-344 229 -11 4 -45 27 -75 51 -30 25 -80 63 -110 86 -30 23 -80 65 -110 94
-59 55 -138 115 -153 115 -11 0 -150 93 -231 154 -70 53 -101 97 -128 179 -12
33 -40 97 -63 141 -23 45 -52 110 -63 146 -12 36 -34 83 -48 104 -15 21 -45
71 -67 110 -22 39 -65 109 -96 156 -31 47 -78 117 -103 155 -65 97 -149 201
-185 228 -16 12 -89 78 -161 146 -73 68 -151 138 -176 155 -24 17 -79 58 -121
91 -43 33 -90 69 -104 80 -14 11 -99 85 -188 165 -88 80 -189 161 -223 180
-33 19 -87 50 -118 69 -31 19 -136 75 -232 124 -96 49 -194 103 -217 118 -54
37 -275 149 -294 149 -8 0 -52 18 -97 40 -118 57 -172 116 -172 189 0 33 44
165 66 199 9 14 36 86 59 161 24 75 53 163 65 196 21 59 150 265 188 301 11
11 31 37 44 59 14 22 36 51 50 65 13 14 37 43 53 65 42 58 158 165 271 248 55
40 103 91 274 285 35 39 90 85 150 124 52 33 110 73 127 89 18 15 65 49 105
75 40 26 106 78 145 115 40 38 105 93 145 124 81 61 152 119 243 195 33 28
100 77 148 109 49 33 98 68 110 79 12 11 153 108 314 215 160 107 313 213 340
235 26 22 86 64 133 92 83 51 226 152 325 231 64 50 654 445 680 455 11 4 49
27 84 51 35 24 75 43 90 43 14 0 50 -17 80 -37z m-6272 -3068 c43 -28 30 -55
-79 -162 -92 -90 -114 -106 -208 -150 -58 -28 -122 -56 -143 -63 -21 -6 -58
-29 -83 -51 -53 -45 -77 -53 -145 -47 -44 5 -57 12 -99 53 -27 27 -52 61 -55
77 -9 39 26 108 78 153 23 21 54 48 69 61 53 48 130 94 158 94 15 0 47 7 70
15 28 10 83 15 164 16 78 0 133 5 156 14 39 16 83 12 117 -10z m-779 -98 c2
-11 -7 -31 -21 -45 -37 -39 -67 -103 -76 -161 -10 -61 -27 -82 -94 -116 -79
-39 -134 -31 -194 28 -26 24 -33 39 -33 68 0 52 31 117 76 161 47 45 80 58
147 59 29 0 68 7 87 14 49 20 104 15 108 -8z m950 11 c7 -7 12 -44 12 -97 0
-56 7 -107 20 -150 72 -236 102 -326 123 -368 100 -200 129 -250 191 -343 107
-158 245 -468 266 -596 5 -30 40 -114 84 -204 41 -84 80 -169 87 -189 13 -42
52 -113 74 -135 39 -38 259 -386 330 -521 33 -63 71 -114 124 -170 42 -44 99
-109 126 -144 66 -83 85 -108 176 -221 42 -52 95 -124 119 -160 24 -36 54 -77
66 -92 12 -15 46 -72 75 -125 108 -201 195 -317 370 -493 189 -190 296 -278
499 -414 80 -54 161 -112 180 -130 19 -18 60 -51 90 -73 30 -22 71 -55 90 -73
19 -18 79 -61 132 -95 109 -72 140 -107 116 -131 -13 -13 -19 -13 -49 4 -19
11 -52 25 -74 32 -50 16 -117 44 -170 72 -52 28 -282 183 -315 212 -14 12 -70
52 -125 90 -148 100 -196 137 -235 180 -19 21 -55 57 -78 80 -320 303 -453
439 -498 504 -18 26 -100 117 -183 202 -115 117 -172 186 -236 281 -47 70 -85
130 -85 135 0 30 -89 128 -192 210 -201 163 -362 349 -444 514 -40 81 -94 171
-123 204 -27 30 -175 135 -251 178 -75 43 -133 115 -200 248 -94 188 -131 296
-146 430 -4 36 -11 76 -17 90 -6 14 -14 88 -19 165 -11 173 -11 193 -3 280 6
62 3 83 -25 173 -17 56 -39 117 -48 135 -13 24 -18 66 -20 169 -3 130 -2 141
22 193 28 61 110 155 135 155 10 0 22 -5 29 -12z m-1799 -153 c56 -59 71 -82
71 -105 0 -33 -30 -70 -58 -70 -27 0 -77 57 -111 127 -33 67 -38 92 -19 111
23 23 46 11 117 -63z m-368 45 c22 -5 57 -15 79 -20 46 -12 100 -55 100 -79 0
-32 61 -140 90 -161 16 -11 38 -35 49 -54 20 -31 20 -36 7 -99 -24 -113 -82
-176 -148 -163 -38 7 -293 170 -314 200 -21 30 -64 171 -64 210 0 45 32 107
75 145 38 33 63 37 126 21z m706 -166 c15 -20 43 -54 61 -76 17 -22 32 -46 32
-54 0 -7 -27 -43 -59 -79 -33 -36 -67 -85 -76 -109 -16 -41 -16 -46 5 -112 13
-43 32 -81 51 -100 38 -40 35 -65 -11 -81 -86 -29 -150 -9 -223 70 -61 66 -71
91 -75 204 -6 135 0 159 54 228 60 78 81 98 129 123 58 30 80 28 112 -14z
m468 -129 c31 -30 31 -33 -4 -82 -16 -22 -48 -79 -71 -126 -38 -78 -79 -127
-107 -127 -5 0 -34 -18 -63 -40 -29 -22 -58 -40 -63 -40 -5 0 -33 24 -64 53
-64 61 -78 109 -48 168 37 74 138 147 245 179 41 12 79 26 85 31 18 17 66 9
90 -16z m730 -47 c8 -28 15 -55 15 -60 0 -4 12 -33 26 -63 30 -67 29 -99 -4
-103 -56 -8 -157 100 -156 167 0 51 41 111 76 111 24 0 29 -6 43 -52z m3995
-23 c22 -30 48 -62 59 -72 17 -17 69 -92 116 -168 11 -18 50 -64 86 -102 46
-49 81 -99 113 -164 26 -52 59 -108 72 -126 13 -17 40 -65 60 -105 69 -141
121 -239 141 -261 10 -12 24 -33 30 -47 6 -14 27 -59 46 -101 19 -41 38 -86
42 -100 4 -13 11 -28 15 -34 4 -5 15 -34 24 -63 8 -29 24 -69 36 -90 28 -51
70 -179 70 -214 0 -16 8 -45 18 -66 17 -34 29 -72 63 -207 7 -27 15 -88 19
-135 3 -47 12 -95 19 -108 7 -13 19 -49 27 -80 19 -72 65 -162 140 -276 32
-49 71 -107 85 -130 32 -52 122 -126 269 -223 63 -42 128 -89 144 -104 16 -15
45 -36 64 -45 20 -9 57 -32 83 -50 25 -19 50 -34 54 -34 4 0 35 -20 69 -43 33
-24 105 -70 159 -102 100 -59 127 -85 127 -119 0 -21 -27 -56 -43 -56 -18 0
-341 164 -409 207 -36 24 -70 43 -74 43 -16 0 -171 106 -214 146 -25 23 -94
76 -155 118 -162 113 -260 195 -301 251 -20 28 -58 73 -84 100 -40 42 -51 63
-70 130 -13 44 -34 100 -47 125 -13 25 -39 95 -58 155 -18 61 -45 141 -59 178
-14 37 -26 78 -26 90 0 19 -24 102 -59 202 -5 17 -20 66 -32 110 -12 44 -34
107 -49 140 -15 33 -31 71 -35 85 -8 29 -20 55 -68 161 -19 41 -38 86 -42 100
-7 20 -38 83 -83 164 -6 11 -41 83 -77 160 -37 77 -93 193 -126 259 -32 65
-59 125 -59 133 0 8 -12 37 -27 64 -37 70 -73 64 -73 -11 0 -15 -7 -47 -15
-70 -8 -23 -15 -67 -15 -98 0 -117 -40 -170 -74 -98 -33 71 -38 124 -29 306 8
146 13 183 31 222 12 26 22 50 22 53 0 14 34 55 46 55 7 0 32 -25 54 -55z
m-4304 -1 c72 -51 79 -73 37 -107 -14 -12 -41 -36 -60 -54 -34 -32 -34 -33
-27 -95 4 -35 11 -73 15 -86 23 -60 -7 -103 -90 -131 -84 -28 -193 5 -247 76
-25 33 -63 143 -64 186 0 35 40 103 97 164 58 61 58 61 128 69 39 3 79 10 90
15 37 15 56 9 121 -37z m185 -192 c24 -21 72 -57 106 -80 34 -23 69 -52 77
-64 20 -29 22 -137 2 -163 -13 -18 -16 -18 -47 -3 -19 9 -69 29 -112 43 -67
24 -84 35 -128 84 -59 65 -72 93 -64 133 8 33 70 88 101 88 12 0 41 -17 65
-38z m-1449 -79 c8 -10 19 -30 25 -44 6 -15 30 -42 53 -60 114 -92 126 -114
86 -154 -45 -45 -164 -28 -228 33 -26 24 -28 32 -28 103 0 69 3 81 26 108 29
35 45 38 66 14z m749 -53 c10 -6 26 -27 34 -46 8 -20 44 -66 80 -103 73 -76
78 -96 43 -158 -31 -54 -49 -73 -69 -73 -32 0 -163 134 -198 203 -44 87 -32
127 54 171 36 19 32 18 56 6z m-224 -135 c27 -19 63 -97 63 -137 0 -25 -28
-97 -73 -186 -18 -36 -40 -44 -77 -26 -23 12 -44 14 -73 9 -23 -4 -56 -9 -73
-12 -44 -7 -71 11 -84 55 -39 141 22 220 220 288 80 28 71 27 97 9z m793 -95
c0 -21 -7 -57 -15 -80 -19 -54 -19 -106 0 -159 10 -28 11 -49 5 -65 -10 -27
-47 -56 -70 -56 -9 0 -37 -13 -63 -30 -26 -16 -55 -30 -64 -30 -45 0 -133 104
-154 182 -31 115 26 181 211 248 36 13 73 29 84 36 32 22 66 -2 66 -46z m217
-5 c12 -8 47 -53 79 -101 58 -87 87 -163 103 -274 5 -30 14 -76 21 -101 16
-54 8 -94 -21 -110 -17 -9 -28 -6 -61 16 -92 61 -205 196 -263 314 -39 79 -39
79 -15 196 13 66 40 89 95 80 22 -3 50 -12 62 -20z m-1493 -69 c66 -28 76 -53
76 -197 0 -116 -2 -131 -20 -149 -23 -23 -32 -22 -140 12 -79 25 -86 30 -109
82 -30 65 -41 115 -31 141 9 24 55 65 74 65 6 0 31 14 56 30 52 35 50 34 94
16z m701 -101 c30 -19 70 -41 89 -49 46 -19 61 -48 44 -83 -16 -33 -51 -53
-95 -53 -17 0 -52 -9 -78 -20 -60 -26 -71 -25 -100 5 -31 30 -32 75 -6 146 23
60 47 89 73 89 10 0 43 -16 73 -35z m-309 -164 c38 -23 65 -66 95 -151 38
-112 10 -155 -84 -124 -78 25 -186 84 -224 122 -36 35 -37 61 -4 111 39 60
151 82 217 42z m572 -109 c31 -22 33 -28 28 -61 -21 -121 -19 -145 9 -179 15
-18 46 -45 69 -61 44 -30 155 -71 192 -71 12 0 41 -9 65 -20 24 -11 56 -20 71
-20 37 0 55 -29 50 -80 -3 -29 -11 -45 -27 -56 -21 -14 -27 -13 -67 7 -24 12
-79 34 -123 49 -117 41 -246 104 -276 137 -15 15 -41 55 -58 87 -29 55 -31 65
-31 167 0 99 2 109 22 123 23 16 26 15 76 -22z m466 -58 c106 -112 115 -126
116 -177 0 -31 -7 -46 -35 -74 -26 -26 -41 -34 -58 -30 -12 2 -43 10 -69 16
-123 29 -146 34 -185 42 -115 23 -171 142 -102 216 29 30 122 84 163 94 70 16
75 13 170 -87z m-679 42 c16 -11 21 -32 27 -98 4 -45 10 -97 14 -115 11 -58
-27 -61 -158 -11 -45 17 -71 70 -66 129 7 66 30 89 99 99 30 4 57 8 60 9 3 0
14 -5 24 -13z m946 -208 c59 -20 88 -48 119 -113 31 -66 31 -89 -1 -105 -42
-23 -107 -3 -161 49 -50 49 -63 126 -28 161 23 23 26 24 71 8z m2094 -215 c94
-47 175 -89 180 -93 14 -12 109 -65 187 -105 37 -19 101 -56 142 -82 80 -51
159 -98 245 -146 117 -65 515 -500 662 -723 19 -29 50 -67 68 -83 19 -17 47
-50 65 -74 41 -60 151 -198 202 -256 22 -25 51 -62 64 -81 13 -19 49 -62 80
-95 66 -69 94 -119 86 -149 -15 -62 -61 -178 -90 -231 -18 -33 -46 -103 -61
-155 -17 -58 -62 -162 -115 -265 -111 -219 -103 -217 -250 -73 -109 106 -237
202 -317 239 -52 24 -116 86 -173 169 -21 30 -52 71 -70 90 -18 19 -46 55 -63
80 -16 25 -39 53 -50 64 -10 10 -34 42 -53 72 -18 29 -38 55 -44 59 -9 6 -172
245 -268 394 -23 36 -60 100 -81 142 -22 42 -50 89 -63 105 -13 16 -50 74 -83
129 -32 55 -73 123 -90 151 -18 27 -43 70 -55 95 -12 24 -37 65 -55 90 -40 55
-57 92 -90 189 -34 98 -90 282 -105 345 -12 48 -18 74 -42 175 -6 25 -12 52
-15 62 -7 25 33 60 60 52 12 -3 99 -44 192 -91z m-2184 -29 c21 -22 24 -34 22
-87 -2 -47 4 -80 23 -132 34 -90 41 -135 22 -135 -7 0 -39 26 -70 58 -47 48
-59 68 -77 130 -19 62 -20 78 -10 112 12 38 42 80 58 80 4 0 18 -12 32 -26z
m271 -56 c18 -14 62 -124 72 -175 3 -18 15 -53 26 -77 24 -54 25 -74 3 -98
-37 -41 -130 -8 -190 69 -40 50 -83 161 -83 212 0 60 25 81 98 81 32 0 65 -6
74 -12z m194 -107 c5 -5 26 -19 48 -30 71 -40 173 -130 203 -178 15 -26 39
-73 53 -103 13 -30 39 -79 57 -108 39 -61 39 -64 14 -86 -18 -16 -22 -16 -49
-2 -48 25 -247 221 -283 279 -17 28 -47 75 -65 104 -43 67 -50 95 -29 117 18
18 36 21 51 7z m-198 -332 c34 -11 51 -11 88 -1 41 11 49 11 65 -4 24 -21 24
-47 2 -102 -24 -58 -50 -64 -105 -21 -67 51 -138 122 -138 137 0 15 8 14 88
-9z m420 -186 c34 -29 80 -57 101 -63 83 -22 89 -69 26 -198 -25 -49 -45 -77
-65 -87 -97 -50 -269 39 -300 156 -13 46 -2 109 32 187 10 24 18 57 18 73 0
22 6 32 23 38 24 9 39 -1 165 -106z m6600 50 c18 -49 92 -277 103 -318 6 -22
17 -63 25 -91 21 -75 20 -584 -1 -644 -8 -23 -15 -53 -15 -66 0 -29 -13 -37
-50 -29 -27 6 -30 10 -28 43 2 73 -33 115 -48 56 -7 -27 9 -74 25 -74 5 0 6
-49 3 -112 -4 -106 -7 -118 -43 -188 -21 -41 -45 -92 -54 -112 -25 -55 -59
-88 -92 -88 -56 0 -206 52 -256 89 -129 95 -217 196 -217 249 0 17 24 50 79
106 68 70 191 232 191 252 0 4 15 28 34 53 18 26 40 63 49 82 28 62 68 143 88
179 10 19 19 48 19 64 0 30 18 104 46 186 63 185 84 261 84 303 0 80 36 117
58 60z m-6218 -259 c30 -31 75 -70 100 -87 54 -37 120 -90 166 -133 59 -55 38
-104 -44 -104 -62 1 -120 28 -183 87 -59 55 -87 101 -119 194 -39 114 -6 132
80 43z m-113 -154 c37 -77 40 -102 13 -140 -24 -34 -51 -31 -71 8 -8 15 -24
43 -37 63 -25 39 -23 72 6 117 26 40 53 25 89 -48z m172 -195 c26 -14 79 -32
117 -40 86 -18 106 -39 98 -99 -3 -22 -14 -62 -25 -88 -10 -26 -19 -64 -19
-85 0 -41 -14 -63 -39 -63 -18 0 -228 206 -248 244 -30 57 1 156 49 156 10 0
40 -11 67 -25z m389 -137 c20 -34 98 -126 173 -203 74 -78 154 -168 176 -201
23 -32 60 -77 83 -99 42 -40 90 -106 90 -124 0 -5 -7 -17 -16 -25 -12 -12 -36
-16 -102 -16 -94 0 -141 15 -206 65 -19 14 -52 31 -73 37 -91 24 -192 86 -225
136 -10 15 -18 41 -18 58 0 17 -7 51 -15 74 -19 53 -19 99 -1 164 8 28 19 73
25 99 13 56 37 97 58 97 7 0 31 -28 51 -62z m2910 -171 c6 -7 16 -35 22 -62 7
-28 20 -80 31 -116 10 -36 19 -84 19 -106 0 -22 7 -60 15 -83 9 -25 15 -78 15
-130 0 -52 6 -105 15 -130 11 -32 15 -87 15 -215 0 -96 -3 -180 -6 -189 -13
-34 -42 -17 -59 34 -16 49 -45 77 -65 65 -6 -4 -8 -11 -4 -16 3 -5 7 -31 8
-57 1 -26 17 -82 34 -125 42 -102 44 -198 8 -285 -13 -31 -27 -68 -31 -82 -4
-14 -27 -55 -51 -92 -24 -38 -52 -85 -63 -105 -30 -59 -75 -97 -115 -97 -33 0
-280 118 -373 178 -66 42 -153 143 -153 178 0 9 23 41 51 70 92 96 264 380
289 478 6 25 22 63 35 85 12 22 28 60 35 85 7 25 23 70 37 100 14 30 31 72 39
93 7 20 36 83 63 140 28 56 69 163 91 237 22 74 43 141 45 148 6 16 40 16 53
-1z m2086 -438 c27 -24 62 -61 78 -84 84 -117 215 -201 405 -260 92 -29 103
-40 103 -109 0 -37 -6 -52 -31 -81 -35 -40 -77 -65 -108 -65 -23 0 -206 91
-301 150 -81 50 -303 270 -366 362 -43 64 -46 71 -40 113 11 71 29 77 128 45
62 -20 95 -38 132 -71z m-4104 -354 c114 -113 212 -205 219 -205 6 0 28 -15
48 -34 21 -18 106 -79 190 -135 84 -56 154 -105 157 -110 15 -23 183 -125 253
-153 43 -17 83 -34 88 -38 6 -4 51 -20 100 -35 90 -27 239 -110 281 -156 10
-12 41 -32 68 -46 27 -14 75 -42 106 -64 32 -21 61 -39 64 -39 4 0 40 -16 79
-35 65 -31 174 -66 267 -85 19 -4 55 -16 80 -28 58 -27 225 -88 314 -113 66
-19 159 -49 316 -103 58 -20 94 -26 162 -26 69 0 101 -5 155 -26 128 -48 318
-104 356 -104 21 0 52 -7 70 -17 18 -9 59 -19 92 -23 56 -7 80 -12 203 -42 26
-6 79 -14 117 -18 39 -4 87 -14 107 -23 55 -25 540 -25 596 -1 20 9 62 20 93
24 30 4 71 15 90 24 81 38 119 37 119 -3 0 -28 -133 -141 -213 -181 -90 -46
-101 -47 -142 -20 -40 27 -77 25 -121 -5 -36 -24 -42 -25 -206 -25 -167 0
-170 0 -228 29 -32 16 -87 48 -121 72 -70 47 -89 45 -100 -12 -15 -70 -130
-134 -194 -108 -17 6 -61 15 -100 20 -93 10 -190 45 -261 94 l-58 40 -205 5
c-113 3 -215 10 -226 14 -11 5 -42 25 -69 44 -28 19 -66 39 -85 44 -113 30
-221 107 -292 209 -26 36 -49 59 -60 59 -11 0 -37 -18 -60 -39 -51 -50 -98
-67 -142 -51 -18 6 -56 15 -84 20 -29 5 -67 16 -85 24 -18 8 -59 25 -90 36
-68 25 -107 61 -138 127 -12 26 -35 66 -51 88 -16 22 -40 56 -52 75 -18 28
-36 39 -87 57 -36 12 -79 22 -96 22 -37 1 -82 16 -179 61 -126 57 -133 60
-145 60 -18 0 -207 188 -240 240 -42 65 -94 99 -169 110 -33 5 -65 11 -70 15
-6 3 -36 10 -68 15 -53 9 -62 15 -136 87 -43 43 -85 93 -94 111 -23 48 -66 76
-173 110 -196 64 -245 83 -273 110 -29 27 -117 191 -117 217 0 27 33 34 204
43 25 2 56 -25 236 -203z m2302 117 c57 -32 201 -130 253 -172 28 -22 70 -55
95 -74 79 -61 814 -550 851 -567 20 -10 54 -32 75 -51 22 -19 55 -44 75 -56
20 -12 47 -32 60 -45 13 -13 48 -40 77 -60 29 -21 84 -67 121 -103 118 -111
444 -325 653 -427 106 -51 126 -71 96 -94 -24 -19 -111 -43 -154 -43 -23 0
-61 -7 -84 -15 -31 -11 -87 -15 -215 -15 -128 0 -184 4 -215 15 -23 8 -75 15
-115 15 -40 0 -92 7 -115 15 -23 8 -54 15 -68 15 -14 0 -55 9 -91 19 -108 32
-163 44 -231 51 -36 4 -99 20 -140 37 -41 16 -109 39 -150 51 -83 25 -387 174
-460 226 -25 18 -64 42 -86 52 -37 17 -184 112 -269 173 -22 16 -61 39 -88 51
-86 40 -101 80 -63 163 52 115 76 192 76 246 0 32 7 78 15 101 12 33 15 92 15
258 0 186 2 218 17 234 20 22 25 22 65 0z m2593 -258 c55 -37 78 -65 122 -155
30 -60 100 -125 150 -138 47 -13 106 -61 139 -113 24 -38 25 -45 18 -129 l-7
-90 38 -54 c42 -62 42 -63 -6 -183 -16 -41 -29 -88 -30 -105 0 -18 -10 -59
-22 -92 -28 -76 -50 -81 -121 -30 -73 52 -86 77 -86 162 0 77 -32 207 -72 298
-43 95 -136 219 -247 330 -75 74 -111 117 -111 132 0 13 23 48 58 85 32 35 66
75 75 91 23 35 36 34 102 -9z m-2717 -839 c53 -36 106 -71 117 -78 109 -72
145 -95 180 -112 78 -40 105 -60 102 -75 -4 -22 -64 -16 -136 15 -33 14 -71
25 -83 25 -33 0 -175 46 -206 66 -14 9 -57 26 -95 38 -48 15 -76 29 -89 47
-19 25 -19 28 -3 59 23 45 63 80 92 80 14 0 68 -29 121 -65z"/>
<path d="M13625 15969 c-109 -46 -262 -155 -304 -214 -19 -27 -59 -76 -89
-107 -74 -78 -87 -97 -194 -296 -44 -81 -202 -320 -258 -390 -80 -100 -231
-236 -300 -270 -25 -13 -65 -34 -89 -47 -25 -14 -66 -32 -92 -39 -25 -8 -59
-21 -75 -29 -16 -8 -71 -18 -121 -22 -89 -7 -92 -7 -117 18 -14 14 -26 32 -26
40 0 39 46 109 127 195 30 31 96 157 100 191 4 27 -1 43 -17 64 -26 32 -40 33
-89 8 -43 -24 -117 -56 -151 -66 -43 -13 -219 -102 -253 -128 -17 -13 -48 -32
-67 -42 -38 -19 -109 -71 -169 -122 -21 -18 -58 -65 -82 -105 -24 -40 -71
-100 -104 -133 -50 -50 -72 -64 -130 -83 -96 -32 -171 -41 -300 -35 -76 3
-124 11 -157 24 -26 10 -66 19 -91 19 -24 0 -63 6 -88 14 -24 7 -73 22 -109
32 -36 10 -101 33 -145 52 -139 59 -239 99 -270 106 -16 4 -43 14 -60 21 -47
22 -163 64 -250 90 -44 14 -114 40 -155 59 -41 20 -95 40 -120 45 -135 30
-198 41 -226 41 -18 0 -51 9 -75 20 -34 15 -66 20 -140 20 -60 0 -113 6 -139
15 -42 15 -183 21 -214 9 -27 -10 -18 -41 22 -72 47 -37 106 -63 207 -92 44
-13 92 -29 107 -37 15 -7 82 -31 150 -53 210 -68 272 -90 315 -110 24 -11 45
-20 47 -20 3 0 35 -14 73 -31 74 -33 122 -54 138 -60 54 -20 267 -152 323
-200 23 -20 68 -49 100 -64 60 -28 177 -133 193 -173 19 -48 -17 -77 -137
-111 -38 -11 -103 -31 -144 -45 -41 -14 -91 -26 -111 -26 -20 0 -56 -7 -79
-15 -34 -12 -102 -15 -352 -15 -332 0 -369 -5 -383 -51 -6 -18 -1 -27 21 -43
34 -25 222 -95 284 -106 25 -4 88 -19 140 -34 71 -19 119 -26 186 -26 70 0
102 -5 135 -20 40 -18 67 -20 320 -20 228 0 284 3 320 16 32 11 108 18 279 24
129 5 258 13 285 19 28 5 84 10 126 10 42 1 96 8 119 16 23 8 60 15 82 15 24
0 60 10 87 25 53 28 212 95 323 136 43 15 110 47 150 70 70 40 146 83 233 130
22 12 78 58 125 102 47 43 112 100 145 125 85 64 122 100 158 152 16 25 105
122 197 215 92 94 177 188 188 210 11 22 30 49 42 60 13 11 38 43 55 70 18 28
40 57 50 65 22 18 128 177 155 231 27 56 83 133 157 216 32 36 79 97 105 136
26 40 62 90 80 112 19 22 49 63 67 92 26 42 53 65 142 123 61 39 112 77 116
86 13 34 -15 44 -126 44 -95 -1 -113 -4 -176 -31z"/>
<path d="M6521 15480 c-26 -12 -65 -20 -100 -20 -73 0 -125 -25 -129 -62 -4
-32 17 -45 86 -58 26 -5 67 -15 92 -24 25 -8 68 -20 95 -26 28 -6 95 -29 150
-50 55 -21 116 -41 136 -44 20 -4 66 -25 103 -47 37 -22 82 -45 99 -51 57 -19
117 -89 117 -136 0 -10 -11 -29 -24 -41 l-25 -23 -95 32 c-53 17 -118 43 -144
57 -57 31 -177 73 -208 73 -12 0 -41 9 -65 20 -24 11 -55 20 -69 20 -14 0 -68
14 -120 30 -52 16 -105 30 -116 30 -12 0 -41 9 -65 20 -24 11 -58 20 -76 20
-17 0 -44 5 -60 11 -15 6 -48 14 -73 19 -69 12 -140 31 -192 51 -26 11 -64 19
-86 19 -22 0 -59 7 -82 15 -23 8 -61 15 -84 15 -22 0 -66 7 -96 15 -32 9 -100
15 -163 15 -96 0 -122 -4 -230 -36 -67 -20 -134 -43 -149 -50 -15 -8 -40 -14
-56 -14 -32 0 -153 -39 -227 -74 -84 -39 -234 -86 -275 -86 -12 0 -48 -13 -79
-30 -31 -16 -90 -45 -131 -65 -106 -50 -132 -65 -157 -88 -27 -24 -29 -40 -8
-57 12 -10 31 -8 97 11 56 15 123 25 208 29 91 4 134 10 157 23 28 15 64 17
271 17 233 0 241 -1 333 -28 113 -35 165 -60 213 -105 35 -33 36 -36 36 -107
l0 -73 -42 -40 c-71 -65 -220 -147 -286 -157 -31 -4 -70 -13 -85 -19 -16 -6
-56 -11 -90 -11 -40 0 -78 -7 -106 -20 -24 -11 -62 -20 -85 -20 -22 0 -66 -7
-96 -15 -30 -8 -74 -15 -96 -15 -23 0 -61 -7 -84 -15 -32 -11 -89 -15 -231
-15 -176 0 -190 -1 -209 -20 -11 -11 -20 -24 -20 -29 0 -22 44 -60 97 -83 58
-26 59 -26 423 -31 296 -5 373 -9 409 -21 64 -23 194 -21 250 4 24 11 60 20
81 20 21 0 51 5 67 11 15 6 46 14 68 19 70 14 146 37 325 101 l175 62 305 7
c192 4 318 11 340 18 19 7 51 12 71 12 20 0 56 7 79 15 59 21 371 21 444 1 28
-8 80 -23 116 -32 36 -10 83 -26 105 -36 35 -15 72 -18 288 -18 l248 0 58 29
c66 34 86 59 102 128 6 26 17 71 25 99 20 74 17 129 -12 219 -44 133 -134 257
-232 321 -31 20 -65 45 -75 56 -38 38 -178 125 -301 186 -160 79 -196 92 -256
92 -26 0 -67 7 -90 15 -24 8 -77 15 -120 15 -56 0 -90 6 -121 20 -32 14 -66
20 -124 20 -58 0 -92 -6 -124 -20z"/>
<path d="M13785 15317 c-16 -23 -46 -62 -66 -87 -21 -25 -55 -72 -76 -106
-121 -194 -287 -420 -359 -491 -22 -21 -52 -60 -69 -86 -33 -54 -277 -296
-384 -381 -38 -31 -87 -77 -108 -103 -62 -77 -183 -202 -253 -259 -36 -30 -93
-78 -127 -107 -216 -182 -422 -295 -686 -374 -67 -19 -134 -42 -149 -49 -15
-8 -40 -14 -56 -14 -16 0 -49 -7 -72 -15 -23 -8 -66 -15 -95 -15 -29 0 -72 -7
-95 -15 -35 -12 -119 -15 -500 -15 -381 0 -465 3 -500 15 -23 8 -57 15 -75 15
-18 0 -52 7 -75 15 -23 8 -62 15 -85 15 -24 0 -62 9 -86 20 -28 13 -66 20
-106 20 -34 0 -74 5 -90 11 -15 6 -57 15 -93 19 -36 4 -96 20 -135 36 -38 15
-97 31 -130 35 -58 6 -100 15 -217 46 -60 17 -88 9 -88 -24 0 -28 105 -125
214 -198 61 -41 125 -85 141 -99 88 -70 296 -156 380 -156 23 0 46 -5 53 -12
17 -17 15 -45 -4 -52 -9 -3 -107 -6 -219 -6 -154 0 -213 4 -245 15 -23 8 -68
15 -100 15 -32 0 -77 -7 -100 -15 -50 -18 -144 -20 -189 -4 -40 14 -62 -1 -45
-29 26 -43 223 -157 312 -182 24 -6 86 -31 139 -55 l95 -45 343 0 343 0 68 29
c38 16 89 34 114 41 25 6 73 25 108 41 34 15 100 40 145 54 46 14 106 36 133
49 85 40 170 45 544 29 149 -7 204 -13 232 -26 21 -9 62 -17 91 -17 30 0 74
-7 97 -15 29 -10 81 -15 160 -15 79 0 131 -5 160 -15 23 -8 66 -15 94 -15 29
0 70 -9 95 -20 36 -17 65 -20 181 -20 97 0 150 -4 180 -15 53 -19 209 -20 233
-2 17 13 51 85 73 157 16 54 37 96 86 170 50 78 73 117 106 180 16 30 39 73
52 95 12 22 39 69 58 105 20 36 46 79 59 96 44 58 21 103 -34 67 -15 -11 -63
-43 -106 -72 -113 -75 -152 -96 -242 -125 -86 -28 -125 -32 -156 -16 -34 19
-20 44 72 130 218 203 263 248 292 290 29 42 76 95 173 193 22 23 55 62 72 87
18 25 61 81 96 124 36 43 77 104 92 135 15 31 45 85 67 121 67 111 91 154 161
296 45 92 106 272 106 313 0 12 8 36 17 54 9 18 20 70 25 117 4 47 11 102 14
123 5 32 4 37 -12 37 -11 0 -32 -19 -49 -43z"/>
<path d="M8600 14215 c-20 -8 -77 -14 -132 -14 -64 -1 -111 -6 -137 -17 -27
-11 -101 -18 -242 -25 -338 -16 -1055 -27 -1173 -18 -61 5 -214 13 -341 19
-155 7 -244 15 -274 25 -57 19 -150 19 -215 0 -28 -8 -130 -19 -226 -25 -216
-12 -329 -30 -405 -64 -31 -15 -101 -41 -154 -58 -106 -33 -121 -42 -121 -68
0 -21 19 -30 65 -30 18 0 52 -9 76 -20 28 -12 66 -20 105 -20 34 0 81 -7 104
-15 23 -8 57 -15 75 -15 18 0 52 -7 75 -15 23 -8 62 -15 87 -15 24 0 58 -8 76
-17 20 -11 67 -19 127 -23 52 -4 118 -12 145 -19 28 -7 77 -20 110 -28 33 -8
80 -23 105 -33 25 -11 63 -24 85 -31 45 -13 263 -126 355 -182 19 -12 69 -34
110 -48 219 -76 290 -104 341 -134 31 -18 66 -36 77 -39 11 -4 40 -18 64 -32
77 -44 292 -146 334 -159 22 -6 72 -33 112 -58 39 -26 74 -47 78 -47 4 0 41
-22 83 -48 42 -26 101 -59 131 -72 30 -14 76 -37 101 -51 25 -15 57 -30 70
-34 13 -4 82 -34 152 -67 71 -33 144 -62 163 -65 30 -5 34 -3 31 14 -1 11 -20
56 -41 99 -21 44 -49 102 -61 129 -37 81 -85 247 -85 296 0 24 -9 64 -20 88
-14 31 -20 65 -20 121 0 56 6 90 20 121 11 24 20 56 20 71 0 45 50 164 86 206
42 49 166 122 254 149 143 44 178 53 219 53 23 0 63 8 89 19 26 10 76 27 112
36 197 53 230 68 230 106 0 30 -33 39 -143 39 -67 0 -120 5 -147 15 -58 20
-477 20 -530 0z"/>
<path d="M10960 12615 c-19 -7 -61 -14 -93 -14 -32 -1 -74 -8 -95 -17 -41 -18
-125 -42 -189 -55 -24 -5 -69 -20 -100 -35 -32 -14 -91 -39 -131 -55 -40 -16
-85 -37 -100 -46 -37 -24 -135 -104 -144 -117 -14 -20 -8 -36 13 -36 22 0 200
50 284 79 89 32 167 44 303 48 103 4 143 1 179 -11 26 -9 66 -16 90 -16 24 0
58 -8 76 -17 30 -16 178 -35 272 -34 101 0 252 18 282 34 18 9 42 17 54 17 30
0 177 46 235 74 27 13 59 26 72 30 25 8 30 41 6 50 -9 3 -73 6 -144 6 -88 0
-141 5 -170 15 -25 9 -78 15 -129 15 -70 0 -104 6 -176 31 -50 16 -110 34
-135 39 -25 4 -58 13 -73 19 -38 15 -144 13 -187 -4z"/>
<path d="M18090 15230 c-11 -21 7 -58 103 -210 19 -30 38 -68 42 -85 3 -16 13
-43 20 -60 62 -139 77 -183 119 -345 10 -36 22 -78 27 -95 41 -120 59 -186 59
-221 0 -23 7 -61 15 -84 12 -33 15 -92 15 -262 0 -218 5 -258 35 -258 31 0 35
39 35 320 l0 282 -34 111 c-19 62 -41 129 -50 149 -9 21 -16 48 -16 60 0 27
-94 319 -133 413 -35 84 -142 276 -164 293 -25 18 -61 15 -73 -8z"/>
<path d="M18756 15084 c-9 -8 -16 -21 -16 -27 0 -7 22 -56 49 -110 59 -116 98
-236 106 -332 4 -38 14 -92 22 -118 18 -56 14 -208 -8 -346 -13 -83 -13 -83
11 -103 23 -19 24 -19 49 7 l26 25 0 258 c-1 218 -3 264 -18 301 -9 24 -17 60
-17 80 -1 107 -131 381 -182 381 -3 0 -14 -7 -22 -16z"/>
<path d="M13110 12261 c-36 -15 -86 -36 -113 -45 -26 -10 -75 -37 -110 -60
-156 -105 -516 -256 -609 -256 -20 0 -55 -7 -78 -15 -55 -19 -128 -19 -175 1
-20 8 -53 14 -72 12 -66 -6 -64 -19 32 -209 245 -485 302 -608 344 -739 10
-30 26 -70 36 -89 30 -60 65 -173 65 -214 0 -22 7 -64 17 -93 13 -44 14 -56 3
-68 -27 -33 -45 -14 -76 79 -7 22 -27 78 -44 125 -17 47 -38 110 -46 140 -54
199 -72 246 -162 420 -86 169 -125 236 -142 250 -4 3 -22 28 -41 55 -133 195
-205 249 -259 195 -29 -29 -28 -191 1 -270 12 -30 31 -85 44 -121 13 -37 32
-84 43 -105 11 -22 40 -95 65 -164 56 -152 113 -268 166 -335 97 -122 306
-440 355 -540 51 -104 107 -186 162 -238 25 -23 79 -85 121 -137 107 -133 134
-160 159 -160 35 0 47 24 39 77 -4 27 -15 68 -25 93 -27 69 -43 138 -50 220
-4 41 -12 88 -19 103 -15 39 -16 1004 0 1044 6 15 17 71 25 123 25 161 30 181
84 310 28 69 64 159 79 201 29 82 28 81 146 225 123 152 139 175 128 193 -15
23 -23 22 -93 -8z"/>
</g>
</svg>
